<?xml version="1.0" encoding="UTF-8" standalone="no"?>
<!-- Created with Inkscape (http://www.inkscape.org/) -->

<svg
   xmlns:dc="http://purl.org/dc/elements/1.1/"
   xmlns:cc="http://creativecommons.org/ns#"
   xmlns:rdf="http://www.w3.org/1999/02/22-rdf-syntax-ns#"
   xmlns:svg="http://www.w3.org/2000/svg"
   xmlns="http://www.w3.org/2000/svg"
   xmlns:sodipodi="http://sodipodi.sourceforge.net/DTD/sodipodi-0.dtd"
   xmlns:inkscape="http://www.inkscape.org/namespaces/inkscape"
   width="24.958817mm"
   height="31.639822mm"
   viewBox="0 0 88.436751 112.10961"
   id="svg2"
   version="1.1"
   inkscape:version="0.91 r13725"
   sodipodi:docname="Hase-lineart.svg">
  <title
     id="title4149">Hare - lineart</title>
  <defs
     id="defs4" />
  <sodipodi:namedview
     id="base"
     pagecolor="#ffffff"
     bordercolor="#666666"
     borderopacity="1.0"
     inkscape:pageopacity="0.0"
     inkscape:pageshadow="2"
     inkscape:zoom="16"
     inkscape:cx="41.659564"
     inkscape:cy="57.862477"
     inkscape:document-units="mm"
     inkscape:current-layer="layer1"
     showgrid="false"
     inkscape:window-width="1603"
     inkscape:window-height="1182"
     inkscape:window-x="521"
     inkscape:window-y="164"
     inkscape:window-maximized="0"
     inkscape:snap-global="false"
     showguides="false"
     fit-margin-top="1"
     fit-margin-right="1"
     fit-margin-bottom="1"
     fit-margin-left="1" />
  <metadata
     id="metadata7">
    <rdf:RDF>
      <cc:Work
         rdf:about="">
        <dc:format>image/svg+xml</dc:format>
        <dc:type
           rdf:resource="http://purl.org/dc/dcmitype/StillImage" />
        <dc:title>Hare - lineart</dc:title>
        <cc:license
           rdf:resource="http://creativecommons.org/publicdomain/zero/1.0/" />
        <dc:date>2014-02-08</dc:date>
        <dc:creator>
          <cc:Agent>
            <dc:title>Frank Tremmel</dc:title>
          </cc:Agent>
        </dc:creator>
        <dc:language>hare, animal, Hase, Tier, outline, lineart</dc:language>
        <dc:description>line art hare</dc:description>
      </cc:Work>
      <cc:License
         rdf:about="http://creativecommons.org/publicdomain/zero/1.0/">
        <cc:permits
           rdf:resource="http://creativecommons.org/ns#Reproduction" />
        <cc:permits
           rdf:resource="http://creativecommons.org/ns#Distribution" />
        <cc:permits
           rdf:resource="http://creativecommons.org/ns#DerivativeWorks" />
      </cc:License>
    </rdf:RDF>
  </metadata>
  <g
     inkscape:label="Ebene 1"
     inkscape:groupmode="layer"
     id="layer1"
     transform="translate(-228.44009,-258.60413)">
    <path
       style="fill:none;fill-rule:evenodd;stroke:#ffcc00;stroke-width:0.35433072;stroke-linecap:butt;stroke-linejoin:miter;stroke-miterlimit:4;stroke-dasharray:none;stroke-opacity:1"
       d="m 271.70578,300.44253 c 0,0 -1.31219,2.54721 -1.14905,3.88909 0.21833,1.7958 2.74004,4.68458 2.74004,4.68458 0.58896,-0.53111 1.16714,-1.091 1.23744,-3.0052 1.16109,-2.01474 0.23942,-3.15253 -0.7955,-4.24264 -1.00032,-1.62508 -1.55686,-1.623 -2.03293,-1.32583 z"
       id="path4404"
       inkscape:connector-curvature="0"
       sodipodi:nodetypes="cscccc" />
    <path
       inkscape:connector-curvature="0"
       style="fill:#ffffff;fill-rule:evenodd;stroke:#ffcc00;stroke-width:0.35433072;stroke-linecap:butt;stroke-linejoin:miter;stroke-miterlimit:4;stroke-dasharray:none;stroke-opacity:1"
       d="m 248.74101,310.66956 c -3.23745,3.07739 -3.2456,9.72649 -4.04102,11.99609 -0.85834,6.55698 0.92568,7.82785 1.38867,11.74219 -0.719,2.85193 0.41922,3.98288 2.72664,3.47212 -0.63798,2.01302 0.27844,2.85449 1.94524,3.22124 1.49839,0.17976 1.58268,0.46233 2.55075,0.0245 -0.29464,0.74482 -0.23464,1.50389 -0.52927,3.25873 -2.43233,2.04541 -1.90814,3.10455 -2.52539,4.54493 -2.61591,2.60956 -2.53736,5.21856 -2.90429,7.82812 -1.10105,0.75761 -2.80514,1.16228 -2.2613,1.91989 -4.58156,0.46158 -6.53401,2.6583 -7.84027,4.14067 -0.71421,3.15475 1.55343,1.83543 2.65039,2.27343 0.96806,0.87093 1.93624,0.28581 2.9043,-0.5039 2.26619,1.89066 5.71054,1.54447 7.07227,-0.25391 1.72028,2.77288 5.48471,2.13806 10.22656,-0.125 0.19876,2.08199 3.26198,1.73848 7.82812,0.125 3.47252,-0.5855 10.60054,1.7447 16.54297,0.50586 3.53248,-0.40036 2.1713,-1.61678 1.89258,-2.65234 2.5158,1.26961 5.29935,1.01647 9.49606,-0.40338 7.02816,-3.43345 7.66803,-9.22097 6.91996,-14.74898 0.40171,-9.4375 -2.42429,-16.63353 -6.07377,-20.80951 -3.59659,-9.05263 -9.67771,-10.92331 -12.23483,-12.58839 -4.26772,-2.39477 -6.98212,-2.70665 -9.59765,-2.46147 z m 17.04492,36.24023 c -0.0208,2.77803 1.12749,6.19243 4.79883,10.98438 -2.37939,-0.75232 -4.86127,-1.09366 -7.57618,-0.50391 -2.7169,-0.14152 -2.67486,-0.9744 -2.77734,-1.76953 0.77593,-1.19489 1.03964,-5.46446 1.51563,-8.45898 1.61093,1.23612 2.73121,0.0273 4.03906,-0.25196 z"
       id="path4176-8"
       sodipodi:nodetypes="cccccccccccccccccccccccccccccc" />
    <path
       style="fill:#ffffff;fill-rule:evenodd;stroke:#ff0000;stroke-width:0.35433072;stroke-linecap:butt;stroke-linejoin:miter;stroke-miterlimit:4;stroke-dasharray:none;stroke-opacity:1"
       d="m 262.36492,293.67392 -0.63134,-4.16688 c 1.12487,-4.30624 4.24955,-9.46953 7.70241,-14.77348 4.37657,-3.6196 3.89109,-6.54463 13.13199,-10.85914 1.73647,-1.24219 2.43036,-0.39921 2.14657,2.39911 -2.87406,2.50633 -4.31468,4.77375 -5.17703,6.9448 l -1.26269,5.68211 c -0.99372,3.58483 -2.64181,5.20657 -4.29315,6.81853 -3.40936,4.29381 -6.37128,5.45554 -9.47018,7.57614"
       id="path4172-4"
       inkscape:connector-curvature="0"
       sodipodi:nodetypes="ccccccccc" />
    <path
       style="fill:#ffffff;fill-rule:evenodd;stroke:#ff00ff;stroke-width:0.35433072;stroke-linecap:butt;stroke-linejoin:miter;stroke-miterlimit:4;stroke-dasharray:none;stroke-opacity:1"
       d="m 302.4301,349.7879 c 2.50832,-1.65118 4.57909,-2.83624 7.33624,-7.18472 0.98692,-0.29638 3.70337,-1.56217 2.75266,2.66428 l -3.04309,3.5229 c 0.89043,0.87346 3.52604,1.50554 0.1389,3.29563 0.533,0.94236 0.44191,2.1508 -0.99753,3.4219 0.58459,1.15513 0.20897,1.34401 -0.54295,1.83089 0.28762,1.83267 0.0644,2.54065 -0.9849,2.70216 -4.20897,1.52662 -9.55436,5.91406 -13.00572,2.7653 6.95897,-2.35136 9.88488,-8.73272 8.34639,-13.01834 z"
       id="path4181-0"
       inkscape:connector-curvature="0"
       sodipodi:nodetypes="cccccccccc" />
    <path
       style="color:#000000;font-style:normal;font-variant:normal;font-weight:normal;font-stretch:normal;font-size:medium;line-height:normal;font-family:sans-serif;text-indent:0;text-align:start;text-decoration:none;text-decoration-line:none;text-decoration-style:solid;text-decoration-color:#000000;letter-spacing:normal;word-spacing:normal;text-transform:none;direction:ltr;block-progression:tb;writing-mode:lr-tb;baseline-shift:baseline;text-anchor:start;white-space:normal;clip-rule:nonzero;display:inline;overflow:visible;visibility:visible;opacity:1;isolation:auto;mix-blend-mode:normal;color-interpolation:sRGB;color-interpolation-filters:linearRGB;solid-color:#000000;solid-opacity:1;fill:#000000;fill-opacity:1;fill-rule:evenodd;stroke:none;stroke-width:1px;stroke-linecap:butt;stroke-linejoin:miter;stroke-miterlimit:4;stroke-dasharray:none;stroke-dashoffset:0;stroke-opacity:1;color-rendering:auto;image-rendering:auto;shape-rendering:auto;text-rendering:auto;enable-background:accumulate"
       d="m 248.30273,310.02734 c -3.46859,3.40259 -4.081,8.53094 -5.13014,12.95518 -0.64255,3.59801 -0.17813,7.90811 1.88764,10.27075 -0.83409,1.92842 -0.99354,6.30684 3.00158,5.23621 -0.48203,3.51793 2.53788,3.50427 4.15874,3.4481 0.9569,0.0157 -0.63532,2.99819 -1.65951,3.76057 -0.82254,3.27785 -3.75681,5.64097 -3.74403,9.24454 -0.39874,3.12608 -3.05249,3.70547 -5.83429,4.09696 -1.79334,1.41328 -5.78072,2.84967 -4.2919,5.77341 1.97626,0.96234 3.79007,2.21458 5.88513,0.20269 -0.47931,1.56667 2.76179,1.78841 5.08412,1.3405 1.24689,-0.24048 1.76621,-0.50594 2.38071,-0.6084 2.79316,2.53568 6.24526,1.16123 9.18276,-0.12492 1.47903,2.74536 6.22129,0.16014 8.55106,-0.39729 2.53526,-0.60154 5.53161,0.59611 8.35703,0.78643 3.47464,0.30712 7.86902,0.40307 11.12939,-1.00006 1.42385,-0.84906 -0.17984,-2.20803 1.63517,-1.59139 5.15576,0.93706 10.87829,-1.53102 13.13689,-6.39511 1.76662,-3.4453 2.11832,-7.02533 1.92405,-10.71936 0.0999,-7.21447 -0.68703,-15.80987 -7.1564,-20.9141 -0.7478,-5.77237 -5.98141,-9.97282 -11.21332,-12.31758 -0.58724,-0.37316 -1.64125,-0.35656 -2.26552,-0.66059 -2.83109,-1.3788 -5.55884,-2.36365 -8.73433,-1.87516 -1.68154,-0.0398 -3.8544,-0.0756 -5.72471,-0.11388 -6.85307,-0.13237 -13.70856,-0.2658 -20.56012,-0.3975 z m -10.9068,53.66849 c 1.20458,-2.5366 4.53735,-4.72585 7.59245,-4.34249 2.63235,0.74809 0.26867,-0.45585 1.94175,-1.38619 0.27179,-0.16468 0.50589,-0.37708 0.70975,-0.62074 0.48407,-0.0276 0.8656,0.0472 0.76632,0.60294 -0.47877,0.42084 -0.92431,0.94137 -1.28939,1.70328 -0.70334,0.38933 -1.40667,0.62889 -2.11001,1.65774 -1.06277,0.59687 -2.00478,1.25413 -2.33816,2.37873 -1.27736,1.53757 -4.41272,1.09929 -5.27271,0.007 z m 7.84184,-1.21655 c 0.66101,-0.73747 1.32036,-1.45846 1.89904,-1.37272 0.55749,-0.73848 1.11497,-1.3452 1.67246,-1.49865 0.91066,-0.36866 1.45918,-0.97875 1.86707,-1.68259 l 2.45139,-1.29282 2.64707,0.001 c 0.65752,0.0453 0.43307,0.58715 0.60628,0.49679 0.94685,-0.49398 2.61905,0.0105 3.52668,0.41618 0.85591,0.0169 1.67927,0.5204 2.8602,0.57585 1.29649,0.0609 2.95267,-0.32112 3.87134,-0.18271 1.54615,-0.0538 4.06741,2.14596 4.95715,0.63223 0.43459,-0.30082 -0.11256,-1.4615 -0.46646,-1.93575 -2.41832,-3.24069 -0.98963,-11.25848 -5.08315,-10.48374 -0.12773,0.0242 -0.2436,-1.98699 -0.27722,-2.41493 -0.0539,-0.68554 0.4339,-6.59271 0.58991,-7.05374 0.20858,-0.61642 1.01586,-2.84569 1.94064,-3.77407 0.77794,-0.78097 1.82094,-1.99176 2.23889,-2.30675 0.8524,-0.64241 2.87518,-1.76719 3.68409,-1.91979 0.84394,-0.15921 2.60208,-0.13659 2.97757,-0.13653 2.20442,3.8e-4 3.32139,1.3198 3.72799,1.5561 0.70766,0.41124 3.20199,1.75267 3.51231,1.75584 0.42145,0.004 2.29769,-0.40093 2.59111,-0.7679 0.11634,-0.1455 0.6109,-0.4092 0.61496,-0.66756 0.004,-0.25837 -0.48241,-0.5114 -0.63166,-0.63556 -0.411,-0.34191 -1.3411,-0.10649 -2.0905,0.0623 -0.72761,0.16385 -1.64041,-0.24577 -2.23261,-0.74272 -0.30295,-0.25423 -1.05915,-0.71011 -1.58085,-1.18599 -0.88819,-0.8102 -3.36503,-1.33118 -3.83622,-1.31485 -0.96496,0.0334 -3.15982,0.12276 -3.47996,0.11704 -1.14734,-0.0205 -3.67077,1.82396 -3.86244,1.89607 -0.85391,0.32129 -2.40318,1.7849 -2.56074,1.98216 -2.02302,2.53262 -2.39554,5.28165 -2.47801,6.20476 -0.0976,1.09284 -0.45583,4.91325 -0.46567,5.65884 -0.002,0.13661 -0.002,3.29796 -0.089,3.47877 -0.16365,0.34056 -0.79441,0.40848 -1.07295,0.42255 -0.84191,0.0425 -1.16702,0.0273 -1.99768,-0.94561 -0.64444,-0.41754 -1.22907,-1.43305 -1.94812,-1.10447 -1.28519,0.69679 -1.04326,1.9489 -1.50612,2.94472 -0.98128,1.07336 -0.79482,1.85479 -1.16953,2.7765 -1.30095,0.26169 -1.733,0.83004 -1.60444,1.59625 -0.052,0.64117 -0.0238,1.22623 0.75291,1.28733 -1.13169,0.72465 -1.80219,2.06083 -1.17028,2.33892 -1.73664,-0.47797 -2.14684,-0.0274 -3.13693,0.0172 -1.28568,0.35919 -1.49754,1.10886 -1.90207,1.78847 -0.27637,-0.61678 -0.68682,-0.92071 -1.2157,-0.94829 0.79333,-1.81759 0.88085,-3.88995 1.92285,-2.55023 0.57241,-0.50059 -0.10636,-1.69714 0.74306,-1.99475 2.08178,-0.72938 1.15182,-5.253 2.69124,-6.29709 -0.16212,-0.37588 0.95267,-0.1621 1.11099,-1.03683 0.0592,-0.32708 0.5389,-1.01375 0.65487,-1.51184 0.74828,0.73723 1.99337,1.24857 2.5208,1.06843 0.062,-0.0212 0.96572,0.16398 1.31903,-0.58957 0.49336,-1.05226 0.91852,0.0471 1.09923,0.18252 0.16894,0.12661 0.76254,1.2197 1.06588,1.24123 0.49518,0.0351 1.79471,-0.3615 1.70902,-0.6091 -0.1836,-0.53056 -0.78036,0.28978 -1.71664,-0.45865 -0.32047,-0.25617 -0.30555,-1.43894 -0.56417,-1.85124 -0.38725,-0.61737 -1.42846,-0.52895 -1.73364,-0.66073 -0.88093,-0.38039 -0.99937,0.99622 -1.27779,1.06507 -0.75452,0.18658 -1.41869,-1.15948 -2.04422,-1.54575 -0.50515,-0.31192 -1.21672,0.70182 -1.67082,0.33848 -0.93281,-0.74635 0.0399,-1.51499 -1.12628,-1.82017 -0.51506,0.0732 -0.40552,1.24266 -0.78159,1.41221 -0.41707,0.18804 -0.83198,-0.009 -1.14007,-0.14152 -0.89811,-1.17496 -1.06595,-4.07535 -3.43687,-3.11529 -2.27004,-1.27781 0.21182,-4.3249 -1.71898,-6.45971 -0.93168,-2.85352 -1.49314,-6.62115 -0.7707,-9.20513 0.70625,-3.60989 0.89449,-7.6975 3.52423,-10.54016 l 5e-5,-4.7e-4 c 8.80602,0.13277 17.61724,0.4144 26.42001,0.45411 4.14563,-0.67288 7.56519,1.94147 11.01214,3.93764 4.56003,2.21821 7.83961,5.93861 9.63943,10.63445 4.75646,5.8474 8.78216,15.53723 5.60026,21.16742 1.0054,3.78276 0.56142,9.64877 -3.66864,12.62965 -1.77753,1.33404 -3.70461,1.64754 -5.93603,1.79511 -1.51296,0.10006 -3.04269,-0.41415 -4.47044,-0.62319 1.13461,-0.98967 -1.2061,-1.97352 -1.4521,-1.74047 0.46623,-0.22344 -1.29987,-2.45456 -1.92172,-1.95146 -0.44159,0.35726 -2.78257,-3.0156 -2.7389,-3.14879 0.0154,-0.047 -0.96563,0.14699 -1.8182,-0.58962 -0.38148,-0.32959 1.21718,-2.17663 0.78007,-2.60419 -0.62755,-0.61382 -0.71149,0.54066 -1.58465,0.0725 -0.45368,-0.24325 -1.20608,-1.62237 -1.70976,-1.95045 -0.87788,-0.57183 -1.10363,0.4903 -1.49707,-0.0316 -0.55047,-0.73018 -0.75972,-2.68443 -1.86215,-1.42859 -1.20516,1.37285 3.42472,5.99522 3.54909,4.88218 0.059,-0.52786 2.1133,4.59086 2.50992,4.19839 0.10567,-0.10456 2.62765,3.04738 2.51214,3.03343 -0.84391,-0.10194 1.55834,2.19362 1.91425,2.20784 -0.15599,1.87967 2.01132,2.084 -0.53177,1.88995 -5.36817,1.01492 -10.71027,-1.06306 -16.06517,-0.5886 -2.1427,0.4699 -4.91936,3.29895 -5.90327,0.45507 -0.0634,-0.0411 -0.21843,-0.65154 0.0518,-1.19402 0.45963,-0.98442 1.02889,-1.36427 1.78284,-1.79661 0.39955,-0.73734 0.26903,-1.61983 -1.11807,-0.34378 -0.22215,0.005 -2.07857,2.48909 -3.09511,3.16446 -0.96712,0.64254 -2.44255,1.84479 -4.40673,1.38254 -1.58858,1.02444 -2.83754,-0.19659 -4.06373,-1.0582 -0.0884,-0.0621 -0.45848,-1.0269 1.54518,-1.4048 0.15078,-0.0284 2.29802,-1.29848 2.9077,-1.72576 0.1942,-0.13611 1.10875,-0.81546 1.54191,-0.94966 0.49872,-0.15451 3.1192,-1.07698 1.22063,-1.73193 -1.25642,-0.43343 -1.75745,0.86449 -1.87994,0.85893 -0.77654,-0.0352 -1.56362,0.86017 -1.84459,1.05367 -0.25977,0.1789 -3.10861,1.79113 -3.36996,1.9248 -0.30888,0.15797 -1.78977,1.54288 -1.93307,1.45351 -0.75249,1.08556 -1.12999,1.33263 -2.38725,1.30514 -0.86304,-0.0189 -1.99156,0.1874 -2.73496,-0.30917 0.4599,-0.8174 0.71255,-1.45868 1.49567,-1.88778 z m 11.26983,-9.31311 c 0.59624,-0.62477 1.1799,-1.11737 1.93914,-3.45369 0.31947,-1.20242 -0.0523,-2.04315 1.35024,-2.9361 0.76089,-0.21544 1.23674,-0.22428 1.15616,0.8225 -0.58144,3.1279 -0.38841,4.97341 -1.46102,7.94799 -0.21432,-0.0256 -1.98692,0.33104 -2.58177,-0.0906 -0.59485,-0.42158 0.26951,-1.29385 -0.40275,-2.29015 z m 8.60564,-5.7111 c 0.23798,3.55066 2.10818,6.72387 4.11719,9.56445 -2.37921,-0.83543 -4.79802,-0.79504 -6.81034,-0.79039 -3.02499,-0.90246 -0.11493,-4.53009 -0.71726,-6.91767 -0.33889,-2.75865 1.92827,-0.4729 3.41041,-1.85639 z"
       id="path4176"
       inkscape:connector-curvature="0"
       sodipodi:nodetypes="ccccccccccsccccccccccsccccccccccccccccccscsccscsssssssssssssssssssssscccccccccccscscssssssssssscsccccccccccccsccssssssssssscccccccscsssssssscscccccccccccccccc" />
    <path
       style="color:#000000;font-style:normal;font-variant:normal;font-weight:normal;font-stretch:normal;font-size:medium;line-height:normal;font-family:sans-serif;text-indent:0;text-align:start;text-decoration:none;text-decoration-line:none;text-decoration-style:solid;text-decoration-color:#000000;letter-spacing:normal;word-spacing:normal;text-transform:none;direction:ltr;block-progression:tb;writing-mode:lr-tb;baseline-shift:baseline;text-anchor:start;white-space:normal;clip-rule:nonzero;display:inline;overflow:visible;visibility:visible;opacity:1;isolation:auto;mix-blend-mode:normal;color-interpolation:sRGB;color-interpolation-filters:linearRGB;solid-color:#000000;solid-opacity:1;fill:#000000;fill-opacity:1;fill-rule:evenodd;stroke:none;stroke-width:1px;stroke-linecap:butt;stroke-linejoin:miter;stroke-miterlimit:4;stroke-dasharray:none;stroke-dashoffset:0;stroke-opacity:1;color-rendering:auto;image-rendering:auto;shape-rendering:auto;text-rendering:auto;enable-background:accumulate"
       d="m 311.18501,341.39495 c -0.85117,-0.14409 -1.16554,0.7166 -1.95649,0.9293 -2.4213,2.06658 -2.07544,3.9733 -4.26125,5.24529 -0.96987,0.60658 -1.61314,1.06474 -2.55622,1.71453 1.12001,2.67978 -0.42024,6.78928 -2.16112,8.93659 -1.74652,2.6049 -4.81237,3.69405 -7.81194,4.56866 0.0252,0.15513 0.59971,0.36624 0.82837,0.5421 -0.43654,2.83293 5.30925,1.22087 7.57217,0.20537 2.12367,-0.88017 3.85102,-2.07598 6.00816,-2.87963 0.73173,0.0595 2.50365,-1.24493 2.23246,-2.41061 -0.1906,-0.94173 1.36223,-1.53374 0.6998,-2.66074 -0.11078,-0.86906 1.80231,-1.68886 1.19163,-2.79054 -1.14357,-1.18538 1.49784,-1.51104 0.61849,-2.9467 -0.17452,-0.79294 -1.7522,-0.85301 -1.35538,-1.49915 l 2.61399,-3.03758 c 0.20719,-1.10293 0.98121,-2.3906 -1.4e-4,-3.25082 -0.541,-0.66087 -1.17342,-0.6687 -1.66253,-0.66607 z m 0.26421,1.32966 c 0.53075,0.51018 0.23405,1.69178 -0.0427,2.31065 l -3.09912,3.92209 c 0.61639,0.75388 0.92187,0.98459 1.70233,1.51335 0.063,0.58011 -1.01451,0.90279 -1.51262,1.23356 -0.0215,0.47185 0.69809,1.09686 0.66107,1.71758 0.15108,0.76573 -1.4327,1.08465 -1.53261,1.6097 0.53438,0.67798 0.28624,1.57401 -0.55357,1.89897 -0.27973,0.48534 0.87113,1.50032 0.36744,2.0382 -0.98353,0.63089 -2.79019,-0.02 -3.81115,0.62606 -2.43909,1.14819 -4.45587,4.1432 -7.28081,3.92891 -0.6159,-0.0567 -1.84782,-0.46655 -0.51181,-0.83093 3.59022,-1.31287 6.0708,-4.27719 7.12578,-7.82223 0.45317,-1.43199 1.09032,-3.59956 0.67088,-5.05221 1.92437,-1.13447 3.4256,-1.66242 4.70353,-3.56563 0.89078,-0.93626 1.04673,-2.53524 1.99623,-3.25963 0.35754,-0.13072 0.72843,-0.29402 1.11709,-0.26844 z"
       id="path4181"
       inkscape:connector-curvature="0"
       sodipodi:nodetypes="ccccccccccccccccccccccccccccccccccc" />
    <path
       style="fill:#ffffff;fill-rule:evenodd;stroke:#00ff00;stroke-width:0.35433072;stroke-linecap:butt;stroke-linejoin:miter;stroke-miterlimit:4;stroke-dasharray:none;stroke-opacity:1"
       d="m 258.18541,292.48699 c -2.15412,1.70303 -4.46648,2.93136 -6.31345,5.55584 -0.92298,1.59841 -0.64198,3.38475 -0.63135,4.67195 -1.86398,2.35636 -2.05744,5.24471 -2.52537,6.94481 l -0.32199,3.83226 c 1.41187,4.13633 5.11265,4.76411 8.4032,6.39553 5.85565,4.59224 7.96082,2.15232 11.36422,2.14657 2.77346,-0.22598 5.38145,-1.22168 4.47624,-4.79191 1.95218,-0.62006 1.56869,-1.94711 0.92176,-3.54184 1.69534,-4.15794 -0.26577,-3.24224 -0.66291,-4.70984 -3.09965,-3.22526 -3.04047,-6.94716 -1.32583,-8.67469 -0.0293,-1.58798 -0.52095,-2.82914 -1.89403,-3.40926 -2.22599,-1.13833 -4.35462,-2.3156 -1.6415,-5.42957 -2.28964,0.22557 -5.21628,1.02442 -4.29315,-1.6415 -0.67571,1.80531 -1.48388,3.34569 -3.15672,3.15673 z"
       id="path4174-3"
       inkscape:connector-curvature="0"
       sodipodi:nodetypes="cccccccccccccccc" />
    <path
       style="color:#000000;font-style:normal;font-variant:normal;font-weight:normal;font-stretch:normal;font-size:medium;line-height:normal;font-family:sans-serif;text-indent:0;text-align:start;text-decoration:none;text-decoration-line:none;text-decoration-style:solid;text-decoration-color:#000000;letter-spacing:normal;word-spacing:normal;text-transform:none;direction:ltr;block-progression:tb;writing-mode:lr-tb;baseline-shift:baseline;text-anchor:start;white-space:normal;clip-rule:nonzero;display:inline;overflow:visible;visibility:visible;opacity:1;isolation:auto;mix-blend-mode:normal;color-interpolation:sRGB;color-interpolation-filters:linearRGB;solid-color:#000000;solid-opacity:1;fill:#000000;fill-opacity:1;fill-rule:evenodd;stroke:none;stroke-width:1px;stroke-linecap:butt;stroke-linejoin:miter;stroke-miterlimit:4;stroke-dasharray:none;stroke-dashoffset:0;stroke-opacity:1;color-rendering:auto;image-rendering:auto;shape-rendering:auto;text-rendering:auto;enable-background:accumulate"
       d="m 279.65631,264.89064 c -3.18474,1.59725 -5.36822,3.27203 -7.50846,6.14197 -0.96489,1.20374 -2.34471,2.55152 -3.54487,3.5282 -1.03263,1.32174 -1.5435,2.9876 -2.35869,4.4727 -2.12251,3.43655 -4.00996,7.07684 -4.99818,11.01536 -0.40694,1.07487 -2.53282,1.05653 -2.57821,1.81522 1.14203,0.84142 2.88359,1.69648 4.14098,0.5921 1.17445,-0.77853 -1.38893,-1.11031 -0.53933,-2.32334 1.51046,-5.19458 3.80994,-8.42328 6.6702,-12.95328 0.5341,-0.55078 1.04587,-0.53869 1.44761,0.12555 0.0399,0.066 -0.23056,1.10353 -0.61549,1.78605 -0.13218,0.23437 1.34058,-0.29358 1.27467,-0.0298 -0.23082,0.92384 -1.63065,1.63553 -0.86159,2.10936 0.51584,0.31781 2.99922,-3.49941 3.2316,-4.19137 0.45181,-1.34537 -0.67981,-4.30866 -0.43298,-4.6363 2.41761,-2.04427 5.29498,-3.75102 7.31688,-6.1888 0.40537,-0.0244 0.99024,-1.28897 3.48084,-1.76158 0.1282,1.32549 0.12225,2.60023 -0.98638,3.13379 -1.86406,1.85743 -3.1792,5.10363 -4.74419,7.12327 0.21692,1.73076 -0.42923,4.34426 -1.25599,6.0935 -0.71403,2.14137 -3.13715,3.36379 -4.00661,5.32269 -2.71567,2.39061 -2.22509,2.36349 -5.1832,4.09995 -0.16321,0.13716 -0.85669,-0.54408 -1.28354,-0.30678 1.18168,-0.60449 0.66989,-0.67922 0.80279,-1.99197 0.01,-0.097 0.63295,-1.73055 1.16896,-2.48163 0.34197,-0.47918 0.80084,-1.95098 0.71025,-2.75842 -0.0406,-0.36208 0.41921,-2.45884 -0.50813,-2.45682 -0.82888,0.002 -2.28599,3.86771 -2.32824,3.93252 -0.66151,1.01478 -0.21102,3.94276 -0.41825,4.05075 -0.84396,0.43978 -0.69051,1.88489 -2.85346,2.11295 -0.37454,0.93318 1.61153,1.56501 1.70903,1.64626 0.60385,0.35646 1.61313,1.21309 2.36185,0.98921 2.81371,-1.65419 5.87917,-3.33962 7.87486,-5.94512 2.35946,-2.09696 4.3409,-4.78704 4.88727,-7.91112 0.3779,-1.59507 0.87814,-3.4072 1.31243,-4.98467 1.06619,-2.63151 2.47831,-4.96685 4.62071,-6.79257 0.0916,-1.2254 1.47775,-3.95931 0.0957,-4.59123 l -2.41713,-0.5298 c -2.77832,0.71996 -1.7791,0.74569 -3.68371,2.7432 z"
       id="path4172"
       inkscape:connector-curvature="0"
       sodipodi:nodetypes="cccccccccssssscccccccccsssssscccccccccc" />
    <path
       style="color:#000000;font-style:normal;font-variant:normal;font-weight:normal;font-stretch:normal;font-size:medium;line-height:normal;font-family:sans-serif;text-indent:0;text-align:start;text-decoration:none;text-decoration-line:none;text-decoration-style:solid;text-decoration-color:#000000;letter-spacing:normal;word-spacing:normal;text-transform:none;direction:ltr;block-progression:tb;writing-mode:lr-tb;baseline-shift:baseline;text-anchor:start;white-space:normal;clip-rule:nonzero;display:inline;overflow:visible;visibility:visible;opacity:1;isolation:auto;mix-blend-mode:normal;color-interpolation:sRGB;color-interpolation-filters:linearRGB;solid-color:#000000;solid-opacity:1;fill:#000000;fill-opacity:1;fill-rule:evenodd;stroke:none;stroke-width:1px;stroke-linecap:butt;stroke-linejoin:miter;stroke-miterlimit:4;stroke-dasharray:none;stroke-dashoffset:0;stroke-opacity:1;color-rendering:auto;image-rendering:auto;shape-rendering:auto;text-rendering:auto;enable-background:accumulate"
       d="m 258.02166,293.32716 c 1.37247,0.21234 3.09801,-0.22034 4.71256,-0.52444 0.49182,-0.32599 0.71752,-0.85172 0.94742,-1.3672 l 0,3e-5 c 0.80587,1.26074 1.96909,0.31155 2.54605,0.63882 -1.06,1.0622 0.11178,2.90949 1.33036,3.81006 1.02505,1.06817 2.05757,1.72323 3.49335,2.61789 0.95354,1.65833 -1.01023,2.79624 -0.97895,4.46358 -0.31458,2.27839 0.73577,4.54097 2.30841,6.14385 -0.35267,-0.30303 0.75911,1.15532 1.19141,1.3496 0.64129,1.08166 -0.46064,2.25478 -0.41016,3.29102 0.81204,1.19209 0.43005,2.79013 -1.14844,2.88672 0.4512,1.35087 0.57272,3.20914 -0.87246,4.00901 -0.17888,0.1073 -1.18064,0.1351 -1.36345,0.2126 -0.0808,0.0342 0.56298,-1.47042 0.23369,-2.23965 -0.19009,-0.44404 0.36007,-1.88125 -0.0246,-2.07408 -0.0505,-0.0253 0.70001,0.26756 1.22796,-0.34153 0.51513,-0.5943 2.56167,-1.51195 1.22928,-2.64517 -0.82637,-0.70284 -1.19267,0.49819 -2.33783,1.07343 -1.32943,0.6678 -1.48259,1.01799 -2.08664,0.96522 -0.70578,-0.0616 -1.18635,-0.58128 -1.56072,-0.81733 -0.69003,-0.43508 -0.29903,-1.82273 -1.50395,-1.66585 -1.45928,0.19 0.049,2.8746 0.85038,3.59162 0.61903,0.55389 2.28846,0.68101 2.28261,0.68664 -0.52389,0.50394 0.35881,1.87699 0.32172,1.71043 -0.62115,-0.0908 -0.48838,2.15466 -0.25311,2.10691 -0.6838,0.0835 -0.6198,0.23338 -1.30728,0.33279 -1.35165,0.30852 -3.35385,0.28959 -4.29508,-0.28399 -0.54886,-0.33448 -1.12684,0.13008 -1.72479,-0.15582 -1.42324,-0.53057 -2.55463,-1.20264 -3.84146,-1.95555 -2.73231,-1.31021 -1.89165,0.97389 -3.43371,-1.90992 -1.29583,-1.16937 1.80486,-0.57674 2.13763,-0.80057 0.39794,-0.26767 1.79543,-0.87591 3.04708,-0.61775 0.53179,0.10969 1.00204,0.73897 1.46418,0.63058 0.47556,-0.11154 0.93509,-0.96329 0.90905,-1.02278 -0.46481,-1.06197 -5.28405,-0.36401 -5.86981,-0.48877 -0.74451,-0.15857 -2.60644,0.18476 -2.56753,0.0319 -0.48682,-0.66948 -1.56445,-1.22376 -1.77165,-2.72772 -0.35301,-2.56236 1.98309,-4.87133 1.70144,-5.49697 -0.36676,-0.8147 -1.75169,0.71627 -1.99465,0.17345 -0.23366,-0.52206 0.4614,-0.69735 0.70905,-1.29886 0.0411,-0.0889 0.8187,-0.46469 1.5205,-1.24367 0.55576,-0.61687 1.06397,-1.62784 1.12119,-1.9568 -2.26338,0.98749 -1.44691,-0.2991 -1.50004,-0.6107 -0.17259,-1.01216 1.99341,-1.07964 2.43583,-1.67744 0.44134,-0.59634 -0.23196,-0.59289 -0.14336,-0.85615 0.19412,-0.57688 -2.38247,1.68215 -2.57419,1.14356 -0.0726,-0.66602 0.62254,-0.3348 1.03886,-0.9852 0.71239,-1.11293 1.27103,-2.33175 2.12352,-3.07009 0.18103,-1.31849 -0.20848,-1.7241 -1.70699,-0.35532 -0.59525,0.36286 -1.93,0.34807 -2.60118,0.48971 -0.36611,1.07348 -0.37678,3.40114 -0.13964,4.59206 0.57448,1.70184 -1.17974,2.8454 -1.44068,4.46598 -0.77244,2.54463 -1.16045,5.17862 -1.59554,7.79626 0.79782,2.74085 3.29871,4.48378 5.83477,5.47531 1.0442,0.46588 2.5304,0.99006 3.2225,1.42415 1.4279,1.14401 3.04924,2.7153 4.84357,3.15035 1.12116,0.27184 2.34834,1.18054 3.20381,-0.73684 1.58701,1.80408 4.26457,0.0262 6.10873,0.0523 1.6845,-0.35142 2.31188,-2.50071 2.16453,-4.27695 -0.72113,-1.59521 1.99591,-1.72157 1.33286,-3.51753 -0.98204,-1.47522 0.57138,-2.89527 0.10141,-4.45991 -0.60389,-1.09855 -1.57844,-1.87404 -2.30763,-2.9126 -1.6306,-1.9921 -2.00624,-5.29646 -7.3e-4,-7.17095 1.58813,-1.36237 -0.0727,-3.89743 -1.69814,-4.51421 -0.93095,-0.55665 -3.1885,-1.60037 -3.05782,-2.39793 0.32829,-1.10088 1.20558,-1.89198 1.91992,-2.75 -1.58209,0.0912 -3.15803,0.51515 -4.74158,0.34581 -0.77201,-0.43757 0.0522,-1.54084 -1.22329,-1.54113 l 3.7e-4,9e-5 c -0.46804,1.19374 -1.15733,3.15806 -2.79519,2.80039 l -3.11414,-0.32192 z"
       id="path4174"
       inkscape:connector-curvature="0"
       sodipodi:nodetypes="cccccccccccccssssssssssscccscccssssscssscscccccsccccccccscccccccccccccccc" />
    <path
       style="color:#000000;font-style:normal;font-variant:normal;font-weight:normal;font-stretch:normal;font-size:medium;line-height:normal;font-family:sans-serif;text-indent:0;text-align:start;text-decoration:none;text-decoration-line:none;text-decoration-style:solid;text-decoration-color:#000000;letter-spacing:normal;word-spacing:normal;text-transform:none;direction:ltr;block-progression:tb;writing-mode:lr-tb;baseline-shift:baseline;text-anchor:start;white-space:normal;clip-rule:nonzero;display:inline;overflow:visible;visibility:visible;opacity:1;isolation:auto;mix-blend-mode:normal;color-interpolation:sRGB;color-interpolation-filters:linearRGB;solid-color:#000000;solid-opacity:1;fill:#000000;fill-opacity:1;fill-rule:evenodd;stroke:none;stroke-width:1px;stroke-linecap:butt;stroke-linejoin:miter;stroke-miterlimit:4;stroke-dasharray:none;stroke-dashoffset:0;stroke-opacity:1;color-rendering:auto;image-rendering:auto;shape-rendering:auto;text-rendering:auto;enable-background:accumulate"
       d="m 259.70117,298.67188 c -0.97612,-0.42292 -2.34122,-0.2452 -3.05147,0.52745 -0.39183,0.37302 -0.81581,1.07699 -1.03033,1.55288 0.0373,0.51798 0.5563,1.66857 0.14433,2.69234 -0.13156,0.33612 -0.042,1.10819 -0.19787,1.4335 -0.0151,0.87219 -0.12003,1.56573 0.0902,2.27357 0.23552,1.02097 1.18302,2.02067 2.1886,2.22538 0.19375,0.11858 0.7891,-0.22895 0.96205,-0.14065 0.65406,0.17747 1.64528,1.17106 2.35492,0.91713 0.64541,-0.26423 0.36384,-1.51752 0.31641,-2.12932 -0.002,-0.23456 -0.19273,-0.70143 -0.17063,-0.7 -0.15661,-1.23387 -0.17824,-2.3307 0.23797,-3.4349 0.0706,-0.34366 0.34539,-0.63103 0.38236,-0.97283 0.0123,-1.44467 0.0144,-2.97069 -1.20313,-3.85795 -0.3153,-0.0542 -0.77502,-0.24898 -1.02345,-0.3866 z m -0.0644,1.39453 c 1.00884,0.45017 0.92372,1.0937 1.03492,2.12572 0.15889,0.5672 0.25195,1.3658 0.0935,1.89025 -0.37939,1.17051 -0.0971,1.90989 -0.5522,3.05239 -0.009,0.33828 -0.19938,0.52914 -0.54881,0.6094 -0.61457,-0.18527 -0.42089,0.042 -1.09492,0.19962 -0.51255,0.11073 -0.17082,-0.0363 -0.7342,-0.0795 -0.51442,-0.11093 -0.93527,-0.22978 -1.0762,-0.77232 -0.22714,-0.70433 -0.3988,-1.42936 -0.40801,-2.17625 -0.0211,-1.70819 0.13004,-2.66879 0.48047,-3.67996 0.33893,-0.71296 0.77061,-1.42512 1.62903,-1.34553 0.16709,0.005 1.04176,0.1427 1.17642,0.17618 z"
       id="path4244"
       inkscape:connector-curvature="0"
       sodipodi:nodetypes="cccccccccccccccccccccccscccc" />
    <path
       style="color:#000000;display:inline;overflow:visible;visibility:visible;opacity:1;fill:#ffffff;fill-opacity:1;fill-rule:evenodd;stroke:#000000;stroke-width:0.70866144;stroke-linecap:round;stroke-linejoin:round;stroke-miterlimit:4;stroke-dasharray:none;stroke-dashoffset:0;stroke-opacity:1;marker:none;enable-background:accumulate"
       d="m 260.15625,303.92471 c 0,0.88761 -0.78204,1.91965 -1.66965,1.91965 -0.8876,0 -1.54464,-1.03205 -1.54464,-1.91965 0,-0.8876 0.71954,-1.98214 1.60714,-1.98214 0.8876,0 1.60715,1.09454 1.60715,1.98214 z"
       id="path4249"
       inkscape:connector-curvature="0"
       sodipodi:nodetypes="sssss" />
    <path
       style="color:#000000;font-style:normal;font-variant:normal;font-weight:normal;font-stretch:normal;font-size:medium;line-height:normal;font-family:sans-serif;text-indent:0;text-align:start;text-decoration:none;text-decoration-line:none;text-decoration-style:solid;text-decoration-color:#000000;letter-spacing:normal;word-spacing:normal;text-transform:none;direction:ltr;block-progression:tb;writing-mode:lr-tb;baseline-shift:baseline;text-anchor:start;white-space:normal;clip-rule:nonzero;display:inline;overflow:visible;visibility:visible;opacity:1;isolation:auto;mix-blend-mode:normal;color-interpolation:sRGB;color-interpolation-filters:linearRGB;solid-color:#000000;solid-opacity:1;fill:#000000;fill-opacity:1;fill-rule:evenodd;stroke:none;stroke-width:1px;stroke-linecap:butt;stroke-linejoin:miter;stroke-miterlimit:4;stroke-dasharray:none;stroke-dashoffset:0;stroke-opacity:1;color-rendering:auto;image-rendering:auto;shape-rendering:auto;text-rendering:auto;enable-background:accumulate"
       d="m 273.20312,350.50781 c -0.6961,-0.54036 -1.54693,-0.38549 -1.18481,0.65198 1.47231,2.62958 2.50783,2.13902 3.86332,4.84058 0.32553,0.66023 1.78367,3.24948 1.94301,3.96885 0.15208,1.66206 0.92913,1.08359 1.3238,0.31984 -0.50774,-2.35056 -1.93435,-4.35002 -3.39488,-6.20618 -0.89813,-1.15558 -1.82463,-2.2994 -2.55044,-3.57507 z"
       id="path4252"
       inkscape:connector-curvature="0"
       sodipodi:nodetypes="ccccccc" />
    <path
       style="fill:#ffffff;fill-opacity:1;fill-rule:evenodd;stroke:#fb0000;stroke-width:0.29055119;stroke-linecap:butt;stroke-linejoin:miter;stroke-miterlimit:4;stroke-dasharray:none;stroke-opacity:1"
       d="m 271.8075,300.28019 c -1.06695,1.02243 -1.16394,2.92417 -1.4375,4.5625 0,0 2,4.1875 2.5,4.0625 0.27434,-0.0686 0.92433,-0.25873 1.28592,-1.03696 0.29743,-0.64015 0.33908,-1.40054 0.33908,-1.40054 0.8089,-1.4808 1.09253,-2.72994 -0.5625,-4.375 -0.53084,-1.40288 -1.26113,-1.90826 -2.125,-1.8125 z"
       id="path4515"
       inkscape:connector-curvature="0"
       sodipodi:nodetypes="ccssccc" />
    <path
       style="color:#000000;font-style:normal;font-variant:normal;font-weight:normal;font-stretch:normal;font-size:medium;line-height:normal;font-family:sans-serif;text-indent:0;text-align:start;text-decoration:none;text-decoration-line:none;text-decoration-style:solid;text-decoration-color:#000000;letter-spacing:normal;word-spacing:normal;text-transform:none;direction:ltr;block-progression:tb;writing-mode:lr-tb;baseline-shift:baseline;text-anchor:start;white-space:normal;clip-rule:nonzero;display:inline;overflow:visible;visibility:visible;opacity:1;isolation:auto;mix-blend-mode:normal;color-interpolation:sRGB;color-interpolation-filters:linearRGB;solid-color:#000000;solid-opacity:1;fill:#000000;fill-opacity:1;fill-rule:evenodd;stroke:none;stroke-width:1px;stroke-linecap:butt;stroke-linejoin:miter;stroke-miterlimit:4;stroke-dasharray:none;stroke-dashoffset:0;stroke-opacity:1;color-rendering:auto;image-rendering:auto;shape-rendering:auto;text-rendering:auto;enable-background:accumulate"
       d="m 271.87437,299.18892 c -0.17217,-0.0346 -0.21513,0.52104 -0.31687,0.64223 -1.05714,1.79002 -1.57556,3.21935 -1.34309,4.94568 0.2479,1.91828 1.34204,3.701 2.93874,4.79181 0.10367,0.0335 0.24081,0.27716 0.3136,0.11669 0.86737,-1.13792 1.27513,-1.76556 1.43815,-3.17353 0.66725,-1.44279 0.53049,-3.14692 -0.29111,-4.41883 -0.37718,-0.921 -1.32967,-2.26952 -2.35243,-2.43105 -0.14904,-0.1423 -0.26365,-0.19332 -0.38699,-0.473 z m 0.31508,1.52397 c 0.46218,0.005 1.20689,1.19927 1.45665,1.54343 1.2122,0.53767 1.32764,2.50742 0.568,3.70738 0.009,1.16999 -0.58956,2.20996 -1.0266,2.21989 -1.28234,-1.14274 -2.12984,-2.83457 -2.03297,-4.5745 0.0464,-1.03629 0.36992,-2.08701 1.03492,-2.8962 z"
       id="path4258"
       inkscape:connector-curvature="0"
       sodipodi:nodetypes="ccccccccccccccc" />
    <path
       style="color:#000000;font-style:normal;font-variant:normal;font-weight:normal;font-stretch:normal;font-size:medium;line-height:normal;font-family:sans-serif;text-indent:0;text-align:start;text-decoration:none;text-decoration-line:none;text-decoration-style:solid;text-decoration-color:#000000;letter-spacing:normal;word-spacing:normal;text-transform:none;direction:ltr;block-progression:tb;writing-mode:lr-tb;baseline-shift:baseline;text-anchor:start;white-space:normal;clip-rule:nonzero;display:inline;overflow:visible;visibility:visible;opacity:1;isolation:auto;mix-blend-mode:normal;color-interpolation:sRGB;color-interpolation-filters:linearRGB;solid-color:#000000;solid-opacity:1;fill:#000000;fill-opacity:1;fill-rule:evenodd;stroke:none;stroke-width:1px;stroke-linecap:butt;stroke-linejoin:miter;stroke-miterlimit:4;stroke-dasharray:none;stroke-dashoffset:0;stroke-opacity:1;color-rendering:auto;image-rendering:auto;shape-rendering:auto;text-rendering:auto;enable-background:accumulate"
       d="m 256.01539,323.00734 c -1.48945,0.81604 -2.20056,0.43739 -3.57015,1.48165 -0.77335,0.57445 -0.60886,1.05364 -0.71567,2.01389 -0.0823,0.63222 -0.18364,1.8117 -0.0596,2.43462 0.54422,-0.0631 0.6465,1.40661 0.96975,1.07068 0.40492,0.12363 -0.28079,-1.35866 0.42109,-1.61323 -0.18734,-0.91762 -0.40238,-1.74377 0.17722,-2.53366 0.64286,-0.85902 1.47736,-1.10904 2.44088,-1.48317 0.81847,-0.30894 1.64849,-0.6035 2.41098,-1.03828 0.54748,-0.51094 1.63135,-1.05881 -0.18042,-0.83757 z"
       id="path4263"
       inkscape:connector-curvature="0"
       sodipodi:nodetypes="ccccccccccc" />
    <path
       style="color:#000000;font-style:normal;font-variant:normal;font-weight:normal;font-stretch:normal;font-size:medium;line-height:normal;font-family:sans-serif;text-indent:0;text-align:start;text-decoration:none;text-decoration-line:none;text-decoration-style:solid;text-decoration-color:#000000;letter-spacing:normal;word-spacing:normal;text-transform:none;direction:ltr;block-progression:tb;writing-mode:lr-tb;baseline-shift:baseline;text-anchor:start;white-space:normal;clip-rule:nonzero;display:inline;overflow:visible;visibility:visible;opacity:1;isolation:auto;mix-blend-mode:normal;color-interpolation:sRGB;color-interpolation-filters:linearRGB;solid-color:#000000;solid-opacity:1;fill:#000000;fill-opacity:1;fill-rule:evenodd;stroke:none;stroke-width:1px;stroke-linecap:butt;stroke-linejoin:miter;stroke-miterlimit:4;stroke-dasharray:none;stroke-dashoffset:0;stroke-opacity:1;color-rendering:auto;image-rendering:auto;shape-rendering:auto;text-rendering:auto;enable-background:accumulate"
       d="m 253.71816,329.34419 c -0.42781,1.04332 -0.1281,1.32277 -0.008,2.45797 0.0357,0.32884 0.29802,0.71706 0.41048,1.02824 0.23519,0.17936 0.4987,0.92519 0.65536,-0.46612 -0.43327,-0.67244 -0.80596,-1.2403 -0.22294,-2.48063 0.0933,-0.33316 0.20981,-0.65951 0.34146,-0.97935 0.11499,-1.02569 -0.0924,-1.14133 -0.63972,-0.75967 z"
       id="path4265"
       inkscape:connector-curvature="0"
       sodipodi:nodetypes="cccccccc" />
    <path
       style="color:#000000;font-style:normal;font-variant:normal;font-weight:normal;font-stretch:normal;font-size:medium;line-height:normal;font-family:sans-serif;text-indent:0;text-align:start;text-decoration:none;text-decoration-line:none;text-decoration-style:solid;text-decoration-color:#000000;letter-spacing:normal;word-spacing:normal;text-transform:none;direction:ltr;block-progression:tb;writing-mode:lr-tb;baseline-shift:baseline;text-anchor:start;white-space:normal;clip-rule:nonzero;display:inline;overflow:visible;visibility:visible;opacity:1;isolation:auto;mix-blend-mode:normal;color-interpolation:sRGB;color-interpolation-filters:linearRGB;solid-color:#000000;solid-opacity:1;fill:#000000;fill-opacity:1;fill-rule:evenodd;stroke:none;stroke-width:1px;stroke-linecap:butt;stroke-linejoin:miter;stroke-miterlimit:4;stroke-dasharray:none;stroke-dashoffset:0;stroke-opacity:1;color-rendering:auto;image-rendering:auto;shape-rendering:auto;text-rendering:auto;enable-background:accumulate"
       d="m 250.06133,331.30706 c -0.57585,0.17471 -0.88535,0.62503 0.15547,1.28474 0.48091,0.16738 1.15608,0.599 0.89005,1.328 1.03768,0.33424 0.74801,1.25653 0.80234,2.09199 -0.0143,0.31757 0.46507,0.40901 0.52565,0.42221 l 0.47727,-0.42231 c -0.0588,-1.03102 -0.38137,-2.28082 -1.00315,-2.39685 0.20813,-0.83645 -0.1652,-1.71362 -0.83747,-1.9606 z"
       id="path4267"
       inkscape:connector-curvature="0"
       sodipodi:nodetypes="ccccccccc" />
    <path
       style="color:#000000;font-style:normal;font-variant:normal;font-weight:normal;font-stretch:normal;font-size:medium;line-height:normal;font-family:sans-serif;text-indent:0;text-align:start;text-decoration:none;text-decoration-line:none;text-decoration-style:solid;text-decoration-color:#000000;letter-spacing:normal;word-spacing:normal;text-transform:none;direction:ltr;block-progression:tb;writing-mode:lr-tb;baseline-shift:baseline;text-anchor:start;white-space:normal;clip-rule:nonzero;display:inline;overflow:visible;visibility:visible;opacity:1;isolation:auto;mix-blend-mode:normal;color-interpolation:sRGB;color-interpolation-filters:linearRGB;solid-color:#000000;solid-opacity:1;fill:#000000;fill-opacity:1;fill-rule:evenodd;stroke:none;stroke-width:1px;stroke-linecap:butt;stroke-linejoin:miter;stroke-miterlimit:4;stroke-dasharray:none;stroke-dashoffset:0;stroke-opacity:1;color-rendering:auto;image-rendering:auto;shape-rendering:auto;text-rendering:auto;enable-background:accumulate"
       d="m 249.65625,334.33203 c -0.4883,-0.0358 -1.21598,-0.87006 -1.21316,-0.66027 -0.40796,1.09953 1.20315,2.01314 1.7069,2.69062 0.40286,0.64363 -0.0251,1.82437 0.53543,2.3432 0.21448,0.19207 0.71973,0.63983 1.38187,0.68398 -0.24894,-0.55268 0.10982,-0.79251 -0.0911,-0.86435 l -0.83263,-0.55509 c 0.11035,-0.13614 0.40728,-0.17045 0.57908,-0.099 -0.66146,-0.19404 -0.79379,-1.1525 -0.77624,-1.59508 -0.45189,-0.66936 -0.9434,-0.81578 -1.20418,-1.5822 -0.037,-0.11834 -0.0695,-0.2387 -0.086,-0.36179 z"
       id="path4269"
       inkscape:connector-curvature="0"
       sodipodi:nodetypes="cccccccccccc" />
    <path
       style="color:#000000;font-style:normal;font-variant:normal;font-weight:normal;font-stretch:normal;font-size:medium;line-height:normal;font-family:sans-serif;text-indent:0;text-align:start;text-decoration:none;text-decoration-line:none;text-decoration-style:solid;text-decoration-color:#000000;letter-spacing:normal;word-spacing:normal;text-transform:none;direction:ltr;block-progression:tb;writing-mode:lr-tb;baseline-shift:baseline;text-anchor:start;white-space:normal;clip-rule:nonzero;display:inline;overflow:visible;visibility:visible;opacity:1;isolation:auto;mix-blend-mode:normal;color-interpolation:sRGB;color-interpolation-filters:linearRGB;solid-color:#000000;solid-opacity:1;fill:#000000;fill-opacity:1;fill-rule:evenodd;stroke:none;stroke-width:1px;stroke-linecap:butt;stroke-linejoin:miter;stroke-miterlimit:4;stroke-dasharray:none;stroke-dashoffset:0;stroke-opacity:1;color-rendering:auto;image-rendering:auto;shape-rendering:auto;text-rendering:auto;enable-background:accumulate"
       d="m 254.76026,336.35484 c -0.38852,-0.077 -1.19761,-0.78487 -0.65625,0.53293 -0.0503,1.33105 0.69541,1.33545 1.37791,1.44519 l 0.89503,1.36431 c 1.00855,0.22257 0.8904,-0.23087 0.65625,-0.75391 l -0.9942,-1.42309 c -0.51829,-0.17372 -1.22829,0.0999 -1.27874,-1.16543 z"
       id="path4271"
       inkscape:connector-curvature="0"
       sodipodi:nodetypes="ccccccc" />
    <path
       style="color:#000000;font-style:normal;font-variant:normal;font-weight:normal;font-stretch:normal;font-size:medium;line-height:normal;font-family:sans-serif;text-indent:0;text-align:start;text-decoration:none;text-decoration-line:none;text-decoration-style:solid;text-decoration-color:#000000;letter-spacing:normal;word-spacing:normal;text-transform:none;direction:ltr;block-progression:tb;writing-mode:lr-tb;baseline-shift:baseline;text-anchor:start;white-space:normal;clip-rule:nonzero;display:inline;overflow:visible;visibility:visible;opacity:1;isolation:auto;mix-blend-mode:normal;color-interpolation:sRGB;color-interpolation-filters:linearRGB;solid-color:#000000;solid-opacity:1;fill:#000000;fill-opacity:1;fill-rule:evenodd;stroke:none;stroke-width:1px;stroke-linecap:butt;stroke-linejoin:miter;stroke-miterlimit:4;stroke-dasharray:none;stroke-dashoffset:0;stroke-opacity:1;color-rendering:auto;image-rendering:auto;shape-rendering:auto;text-rendering:auto;enable-background:accumulate"
       d="m 258.61328,329.75195 c -0.0955,0.47094 0.0999,0.93113 0.21043,1.38118 0.49867,0.80936 1.02422,1.60692 0.86247,2.38673 0.24152,1.66264 0.66944,2.39325 1.24759,2.37274 0.67058,0.4694 0.97374,0.32646 0.88672,-0.4668 -0.84293,-0.48845 -1.43419,-1.16837 -1.26654,-2.41306 -0.33362,-0.85458 -0.66873,-1.71362 -0.88803,-2.60594 -0.0825,-0.14054 0.041,-0.45604 -0.15363,-0.47399 -1.21889,-1.65361 -0.86317,-0.57794 -0.89901,-0.18086 z"
       id="path4273"
       inkscape:connector-curvature="0"
       sodipodi:nodetypes="ccccccccc" />
    <path
       style="color:#000000;font-style:normal;font-variant:normal;font-weight:normal;font-stretch:normal;font-size:medium;line-height:normal;font-family:sans-serif;text-indent:0;text-align:start;text-decoration:none;text-decoration-line:none;text-decoration-style:solid;text-decoration-color:#000000;letter-spacing:normal;word-spacing:normal;text-transform:none;direction:ltr;block-progression:tb;writing-mode:lr-tb;baseline-shift:baseline;text-anchor:start;white-space:normal;clip-rule:nonzero;display:inline;overflow:visible;visibility:visible;opacity:1;isolation:auto;mix-blend-mode:normal;color-interpolation:sRGB;color-interpolation-filters:linearRGB;solid-color:#000000;solid-opacity:1;fill:#000000;fill-opacity:1;fill-rule:evenodd;stroke:none;stroke-width:1px;stroke-linecap:butt;stroke-linejoin:miter;stroke-miterlimit:4;stroke-dasharray:none;stroke-dashoffset:0;stroke-opacity:1;color-rendering:auto;image-rendering:auto;shape-rendering:auto;text-rendering:auto;enable-background:accumulate"
       d="m 258.09529,336.76367 c -0.58851,-2.12838 -0.14505,0.14352 -0.82227,0.53679 0.31093,0.7346 -0.24808,1.51969 1.61478,1.70143 0.25719,0.0977 0.52767,0.16037 0.80165,0.18561 0.89897,-0.27776 0.54185,-0.95167 0.12337,-1.31176 -0.79594,0.61931 -1.01239,0.34137 -1.23801,-0.32094 -0.22758,-0.2198 -0.29933,-0.53158 -0.47952,-0.79113 z"
       id="path4275"
       inkscape:connector-curvature="0"
       sodipodi:nodetypes="ccccccc" />
    <path
       style="color:#000000;font-style:normal;font-variant:normal;font-weight:normal;font-stretch:normal;font-size:medium;line-height:normal;font-family:sans-serif;text-indent:0;text-align:start;text-decoration:none;text-decoration-line:none;text-decoration-style:solid;text-decoration-color:#000000;letter-spacing:normal;word-spacing:normal;text-transform:none;direction:ltr;block-progression:tb;writing-mode:lr-tb;baseline-shift:baseline;text-anchor:start;white-space:normal;clip-rule:nonzero;display:inline;overflow:visible;visibility:visible;opacity:1;isolation:auto;mix-blend-mode:normal;color-interpolation:sRGB;color-interpolation-filters:linearRGB;solid-color:#000000;solid-opacity:1;fill:#000000;fill-opacity:1;fill-rule:evenodd;stroke:none;stroke-width:1px;stroke-linecap:butt;stroke-linejoin:miter;stroke-miterlimit:4;stroke-dasharray:none;stroke-dashoffset:0;stroke-opacity:1;color-rendering:auto;image-rendering:auto;shape-rendering:auto;text-rendering:auto;enable-background:accumulate"
       d="m 258.353,332.47647 c -1.118,-1.01827 -1.23756,-0.23935 -1.55808,0.17783 0.50815,0.48197 1.00116,0.99427 1.25806,1.89181 -0.23304,0.89864 0.21383,1.45732 0.98804,1.85233 0.68454,0.11206 1.49898,0.31343 0.88281,-0.46875 -1.50027,-0.44035 -0.80343,-1.27043 -1.03328,-1.93373 -0.74343,-0.13034 -0.49551,-0.92157 -0.53755,-1.51949 z"
       id="path4277"
       inkscape:connector-curvature="0"
       sodipodi:nodetypes="ccccccc" />
    <path
       style="color:#000000;font-style:normal;font-variant:normal;font-weight:normal;font-stretch:normal;font-size:medium;line-height:normal;font-family:sans-serif;text-indent:0;text-align:start;text-decoration:none;text-decoration-line:none;text-decoration-style:solid;text-decoration-color:#000000;letter-spacing:normal;word-spacing:normal;text-transform:none;direction:ltr;block-progression:tb;writing-mode:lr-tb;baseline-shift:baseline;text-anchor:start;white-space:normal;clip-rule:nonzero;display:inline;overflow:visible;visibility:visible;opacity:1;isolation:auto;mix-blend-mode:normal;color-interpolation:sRGB;color-interpolation-filters:linearRGB;solid-color:#000000;solid-opacity:1;fill:#000000;fill-opacity:1;fill-rule:evenodd;stroke:none;stroke-width:1px;stroke-linecap:butt;stroke-linejoin:miter;stroke-miterlimit:4;stroke-dasharray:none;stroke-dashoffset:0;stroke-opacity:1;color-rendering:auto;image-rendering:auto;shape-rendering:auto;text-rendering:auto;enable-background:accumulate"
       d="m 255.60938,326.28711 c -0.37992,1.78941 -0.32336,2.3495 -0.11886,3.29262 0.0467,0.32653 0.12364,0.64979 0.24386,0.95738 0.56099,0.45134 0.95724,0.52615 0.93164,-0.36328 -0.22147,-0.59861 -0.54405,-1.28088 -0.53429,-1.9112 0.0174,-0.63155 0.39557,-1.22928 0.46979,-1.85638 -0.23259,-0.60377 -0.43435,-1.38605 -0.99214,-0.11914 z"
       id="path4279"
       inkscape:connector-curvature="0"
       sodipodi:nodetypes="ccccccc" />
    <path
       style="color:#000000;font-style:normal;font-variant:normal;font-weight:normal;font-stretch:normal;font-size:medium;line-height:normal;font-family:sans-serif;text-indent:0;text-align:start;text-decoration:none;text-decoration-line:none;text-decoration-style:solid;text-decoration-color:#000000;letter-spacing:normal;word-spacing:normal;text-transform:none;direction:ltr;block-progression:tb;writing-mode:lr-tb;baseline-shift:baseline;text-anchor:start;white-space:normal;clip-rule:nonzero;display:inline;overflow:visible;visibility:visible;opacity:1;isolation:auto;mix-blend-mode:normal;color-interpolation:sRGB;color-interpolation-filters:linearRGB;solid-color:#000000;solid-opacity:1;fill:#000000;fill-opacity:1;fill-rule:evenodd;stroke:none;stroke-width:1px;stroke-linecap:butt;stroke-linejoin:miter;stroke-miterlimit:4;stroke-dasharray:none;stroke-dashoffset:0;stroke-opacity:1;color-rendering:auto;image-rendering:auto;shape-rendering:auto;text-rendering:auto;enable-background:accumulate"
       d="m 252.30205,318.14773 c -0.69474,2.67357 -2.40894,5.40545 -2.41033,7.83695 -0.008,1.44623 0.21551,2.89352 0.65516,4.27118 0.31751,1.24227 2.69217,-0.2635 0.6355,-1.09582 -0.86793,-2.74465 -0.54804,-5.06225 0.73361,-7.67937 0.29018,-0.59307 2.50535,-1.69199 2.91132,-2.21262 z"
       id="path4281"
       inkscape:connector-curvature="0"
       sodipodi:nodetypes="ccccccc" />
    <path
       style="color:#000000;font-style:normal;font-variant:normal;font-weight:normal;font-stretch:normal;font-size:medium;line-height:normal;font-family:sans-serif;text-indent:0;text-align:start;text-decoration:none;text-decoration-line:none;text-decoration-style:solid;text-decoration-color:#000000;letter-spacing:normal;word-spacing:normal;text-transform:none;direction:ltr;block-progression:tb;writing-mode:lr-tb;baseline-shift:baseline;text-anchor:start;white-space:normal;clip-rule:nonzero;display:inline;overflow:visible;visibility:visible;opacity:1;isolation:auto;mix-blend-mode:normal;color-interpolation:sRGB;color-interpolation-filters:linearRGB;solid-color:#000000;solid-opacity:1;fill:#000000;fill-opacity:1;fill-rule:evenodd;stroke:none;stroke-width:1px;stroke-linecap:butt;stroke-linejoin:miter;stroke-miterlimit:4;stroke-dasharray:none;stroke-dashoffset:0;stroke-opacity:1;color-rendering:auto;image-rendering:auto;shape-rendering:auto;text-rendering:auto;enable-background:accumulate"
       d="m 281.58008,324.22266 c -0.45294,-0.25067 -0.9863,-0.68895 -0.75781,0.65039 0.80471,0.95247 0.54011,2.1188 2.44335,2.85156 1.13727,0.0212 1.99886,0.53852 3.67383,-0.4082 0.36759,-0.80965 -0.10216,-1.40914 -0.99521,-0.72897 -0.63906,0.40041 -1.25426,0.83064 -2.35099,0.65896 -1.31382,-0.82426 -1.44433,-1.98662 -2.01317,-3.02374 z"
       id="path4283"
       inkscape:connector-curvature="0"
       sodipodi:nodetypes="ccccccc" />
    <path
       style="color:#000000;font-style:normal;font-variant:normal;font-weight:normal;font-stretch:normal;font-size:medium;line-height:normal;font-family:sans-serif;text-indent:0;text-align:start;text-decoration:none;text-decoration-line:none;text-decoration-style:solid;text-decoration-color:#000000;letter-spacing:normal;word-spacing:normal;text-transform:none;direction:ltr;block-progression:tb;writing-mode:lr-tb;baseline-shift:baseline;text-anchor:start;white-space:normal;clip-rule:nonzero;display:inline;overflow:visible;visibility:visible;opacity:1;isolation:auto;mix-blend-mode:normal;color-interpolation:sRGB;color-interpolation-filters:linearRGB;solid-color:#000000;solid-opacity:1;fill:#000000;fill-opacity:1;fill-rule:evenodd;stroke:none;stroke-width:1px;stroke-linecap:butt;stroke-linejoin:miter;stroke-miterlimit:4;stroke-dasharray:none;stroke-dashoffset:0;stroke-opacity:1;color-rendering:auto;image-rendering:auto;shape-rendering:auto;text-rendering:auto;enable-background:accumulate"
       d="m 274.15039,320.99219 0.1543,0.63086 c 0.41657,0.22003 0.12093,0.90867 0.46339,1.21989 0.4203,0.42275 0.95784,0.77768 1.5717,0.79784 0.5871,0.0277 1.12299,-0.76435 1.62702,-1.02945 0.4568,0.242 0.71499,0.90717 1.24534,0.91692 0.15695,-0.0501 1.19451,0.34731 1.46394,-0.1732 0.1496,-0.52851 -0.63822,-0.24451 -0.95733,-0.39802 -0.41956,-0.15705 -0.45185,-0.28265 -0.86102,-0.4741 -0.30757,-0.13027 -0.58805,-0.3132 -0.87335,-0.48488 -0.483,0.29859 -0.98975,0.63503 -1.57627,0.64483 -0.48043,0.003 -0.77802,0.13503 -1.07081,-0.19299 -0.32772,-0.37175 -0.72668,-1.25665 -1.18691,-1.4577 z"
       id="path4285"
       inkscape:connector-curvature="0"
       sodipodi:nodetypes="ccccccccccccc" />
    <path
       style="color:#000000;font-style:normal;font-variant:normal;font-weight:normal;font-stretch:normal;font-size:medium;line-height:normal;font-family:sans-serif;text-indent:0;text-align:start;text-decoration:none;text-decoration-line:none;text-decoration-style:solid;text-decoration-color:#000000;letter-spacing:normal;word-spacing:normal;text-transform:none;direction:ltr;block-progression:tb;writing-mode:lr-tb;baseline-shift:baseline;text-anchor:start;white-space:normal;clip-rule:nonzero;display:inline;overflow:visible;visibility:visible;opacity:1;isolation:auto;mix-blend-mode:normal;color-interpolation:sRGB;color-interpolation-filters:linearRGB;solid-color:#000000;solid-opacity:1;fill:#000000;fill-opacity:1;fill-rule:evenodd;stroke:none;stroke-width:1px;stroke-linecap:butt;stroke-linejoin:miter;stroke-miterlimit:4;stroke-dasharray:none;stroke-dashoffset:0;stroke-opacity:1;color-rendering:auto;image-rendering:auto;shape-rendering:auto;text-rendering:auto;enable-background:accumulate"
       d="m 281.63477,321.43945 c -0.46589,0.0646 -1.1807,-0.0518 -0.41016,0.91211 1.04525,0.49064 2.34931,0.16546 3.45469,-0.15541 0.27895,-0.1415 0.39581,0.59618 0.65878,0.6646 1.24079,0.5962 1.93311,0.45793 3.2353,0.13495 0.33716,-0.0829 0.53773,-0.53523 0.86696,-0.6454 l 0.56747,-0.54952 c -1.17025,0.3816 -2.26018,1.22528 -3.487,0.93325 -0.51915,-0.11957 -1.15851,-0.93017 -1.55987,-1.27309 -0.76312,0.28262 -1.28614,0.82736 -2.09596,0.63899 -0.31746,-0.0665 -0.93456,-0.52796 -1.23021,-0.66048 z"
       id="path4287"
       inkscape:connector-curvature="0"
       sodipodi:nodetypes="ccccccccccc" />
    <path
       style="color:#000000;font-style:normal;font-variant:normal;font-weight:normal;font-stretch:normal;font-size:medium;line-height:normal;font-family:sans-serif;text-indent:0;text-align:start;text-decoration:none;text-decoration-line:none;text-decoration-style:solid;text-decoration-color:#000000;letter-spacing:normal;word-spacing:normal;text-transform:none;direction:ltr;block-progression:tb;writing-mode:lr-tb;baseline-shift:baseline;text-anchor:start;white-space:normal;clip-rule:nonzero;display:inline;overflow:visible;visibility:visible;opacity:1;isolation:auto;mix-blend-mode:normal;color-interpolation:sRGB;color-interpolation-filters:linearRGB;solid-color:#000000;solid-opacity:1;fill:#000000;fill-opacity:1;fill-rule:evenodd;stroke:none;stroke-width:1px;stroke-linecap:butt;stroke-linejoin:miter;stroke-miterlimit:4;stroke-dasharray:none;stroke-dashoffset:0;stroke-opacity:1;color-rendering:auto;image-rendering:auto;shape-rendering:auto;text-rendering:auto;enable-background:accumulate"
       d="m 297.62695,342.8125 c -0.9285,-0.86587 -1.72092,-0.89711 -1.13258,0.45364 -0.0124,1.52649 -0.11943,2.69789 0.52254,4.13871 0.2536,0.58425 0.65876,1.09611 1.15494,1.49357 0.53514,-0.0276 1.06976,0.13545 1.29245,0.57981 0.28158,0.38693 0.30907,1.58484 0.30757,2.02464 -0.0945,0.9178 -0.61352,1.45309 -1.25635,2.16049 -0.27795,0.34134 0.0364,0.96679 -0.14616,1.36935 0.53779,1.39808 0.50105,1.06821 1.03884,0.11251 0.34826,-0.71394 0.29197,-1.19498 0.56818,-1.95245 0.43125,-1.06299 0.504,-2.22691 0.54116,-3.36078 -0.34508,-0.878 -0.87587,-1.30081 -1.88074,-1.42251 -0.25271,-0.0582 -0.58676,-0.90145 -1.00206,-1.16245 -0.39614,-0.86201 -0.48389,-1.74531 -0.45658,-2.88064 0.009,-0.62125 0.45565,-0.93245 0.44875,-1.55385 z"
       id="path4289"
       inkscape:connector-curvature="0"
       sodipodi:nodetypes="cccccccccccccccc" />
    <path
       style="color:#000000;font-style:normal;font-variant:normal;font-weight:normal;font-stretch:normal;font-size:medium;line-height:normal;font-family:sans-serif;text-indent:0;text-align:start;text-decoration:none;text-decoration-line:none;text-decoration-style:solid;text-decoration-color:#000000;letter-spacing:normal;word-spacing:normal;text-transform:none;direction:ltr;block-progression:tb;writing-mode:lr-tb;baseline-shift:baseline;text-anchor:start;white-space:normal;clip-rule:nonzero;display:inline;overflow:visible;visibility:visible;opacity:1;isolation:auto;mix-blend-mode:normal;color-interpolation:sRGB;color-interpolation-filters:linearRGB;solid-color:#000000;solid-opacity:1;fill:#000000;fill-opacity:1;fill-rule:evenodd;stroke:none;stroke-width:1px;stroke-linecap:butt;stroke-linejoin:miter;stroke-miterlimit:4;stroke-dasharray:none;stroke-dashoffset:0;stroke-opacity:1;color-rendering:auto;image-rendering:auto;shape-rendering:auto;text-rendering:auto;enable-background:accumulate"
       d="m 297.86133,349.74805 c -0.76288,-0.88176 -1.29404,-1.1737 -0.77317,1.21227 0.46163,4.24957 -0.74448,4.59516 -1.89089,6.11585 -0.62183,1.90272 -0.14694,1.0552 0.62204,0.2922 1.17901,-1.56392 2.52429,-3.1807 2.04202,-7.62032 z"
       id="path4291"
       inkscape:connector-curvature="0"
       sodipodi:nodetypes="ccccc" />
    <path
       style="color:#000000;font-style:normal;font-variant:normal;font-weight:normal;font-stretch:normal;font-size:medium;line-height:normal;font-family:sans-serif;text-indent:0;text-align:start;text-decoration:none;text-decoration-line:none;text-decoration-style:solid;text-decoration-color:#000000;letter-spacing:normal;word-spacing:normal;text-transform:none;direction:ltr;block-progression:tb;writing-mode:lr-tb;baseline-shift:baseline;text-anchor:start;white-space:normal;clip-rule:nonzero;display:inline;overflow:visible;visibility:visible;opacity:1;isolation:auto;mix-blend-mode:normal;color-interpolation:sRGB;color-interpolation-filters:linearRGB;solid-color:#000000;solid-opacity:1;fill:#000000;fill-opacity:1;fill-rule:evenodd;stroke:none;stroke-width:1px;stroke-linecap:butt;stroke-linejoin:miter;stroke-miterlimit:4;stroke-dasharray:none;stroke-dashoffset:0;stroke-opacity:1;color-rendering:auto;image-rendering:auto;shape-rendering:auto;text-rendering:auto;enable-background:accumulate"
       d="m 294.74219,342.95312 c -0.50492,1.22354 -1.50059,3.0626 -0.0501,4.00076 0.20909,0.91718 0.47297,1.52711 0.81772,2.39964 0.61271,0.66493 0.59677,0.54389 0.62032,-0.323 -0.50438,-1.27947 -1.23485,-1.93172 -1.21717,-3.33248 0.005,-0.58596 0.15268,-0.55074 0.38074,-1.63692 0.002,-0.72543 0.72768,-2.83803 -0.55147,-1.108 z"
       id="path4293"
       inkscape:connector-curvature="0"
       sodipodi:nodetypes="ccccccc" />
    <path
       style="color:#000000;font-style:normal;font-variant:normal;font-weight:normal;font-stretch:normal;font-size:medium;line-height:normal;font-family:sans-serif;text-indent:0;text-align:start;text-decoration:none;text-decoration-line:none;text-decoration-style:solid;text-decoration-color:#000000;letter-spacing:normal;word-spacing:normal;text-transform:none;direction:ltr;block-progression:tb;writing-mode:lr-tb;baseline-shift:baseline;text-anchor:start;white-space:normal;clip-rule:nonzero;display:inline;overflow:visible;visibility:visible;opacity:1;isolation:auto;mix-blend-mode:normal;color-interpolation:sRGB;color-interpolation-filters:linearRGB;solid-color:#000000;solid-opacity:1;fill:#000000;fill-opacity:1;fill-rule:evenodd;stroke:none;stroke-width:1px;stroke-linecap:butt;stroke-linejoin:miter;stroke-miterlimit:4;stroke-dasharray:none;stroke-dashoffset:0;stroke-opacity:1;color-rendering:auto;image-rendering:auto;shape-rendering:auto;text-rendering:auto;enable-background:accumulate"
       d="m 293.31641,342.17578 c -0.37622,-0.23191 -0.8387,-0.98142 -0.9961,0.0996 0.60887,0.72068 1.1452,1.45807 0.25196,2.52539 0.26701,1.20219 0.61151,0.93208 0.99609,-0.0996 0.3876,-0.79464 0.52953,-1.61384 -0.25195,-2.52539 z"
       id="path4295"
       inkscape:connector-curvature="0"
       sodipodi:nodetypes="ccccc" />
    <path
       style="color:#000000;font-style:normal;font-variant:normal;font-weight:normal;font-stretch:normal;font-size:medium;line-height:normal;font-family:sans-serif;text-indent:0;text-align:start;text-decoration:none;text-decoration-line:none;text-decoration-style:solid;text-decoration-color:#000000;letter-spacing:normal;word-spacing:normal;text-transform:none;direction:ltr;block-progression:tb;writing-mode:lr-tb;baseline-shift:baseline;text-anchor:start;white-space:normal;clip-rule:nonzero;display:inline;overflow:visible;visibility:visible;opacity:1;isolation:auto;mix-blend-mode:normal;color-interpolation:sRGB;color-interpolation-filters:linearRGB;solid-color:#000000;solid-opacity:1;fill:#000000;fill-opacity:1;fill-rule:evenodd;stroke:none;stroke-width:1px;stroke-linecap:butt;stroke-linejoin:miter;stroke-miterlimit:4;stroke-dasharray:none;stroke-dashoffset:0;stroke-opacity:1;color-rendering:auto;image-rendering:auto;shape-rendering:auto;text-rendering:auto;enable-background:accumulate"
       d="m 290.11787,339.7932 c -0.65654,-0.48302 -0.58235,0.008 -0.55342,0.43922 0.35172,1.16625 1.0319,1.50481 0.76475,3.56596 0.20518,0.80618 0.29051,1.28199 0.92249,1.85393 0.5789,0.20365 1.5309,0.84824 0.89089,-0.38864 -0.44865,-0.43342 -0.64492,-1.0517 -0.81794,-1.63428 0.32868,-1.2936 -0.44373,-2.67031 -1.20677,-3.83619 z"
       id="path4297"
       inkscape:connector-curvature="0"
       sodipodi:nodetypes="ccccccc" />
    <path
       style="color:#000000;font-style:normal;font-variant:normal;font-weight:normal;font-stretch:normal;font-size:medium;line-height:normal;font-family:sans-serif;text-indent:0;text-align:start;text-decoration:none;text-decoration-line:none;text-decoration-style:solid;text-decoration-color:#000000;letter-spacing:normal;word-spacing:normal;text-transform:none;direction:ltr;block-progression:tb;writing-mode:lr-tb;baseline-shift:baseline;text-anchor:start;white-space:normal;clip-rule:nonzero;display:inline;overflow:visible;visibility:visible;opacity:1;isolation:auto;mix-blend-mode:normal;color-interpolation:sRGB;color-interpolation-filters:linearRGB;solid-color:#000000;solid-opacity:1;fill:#000000;fill-opacity:1;fill-rule:evenodd;stroke:none;stroke-width:1px;stroke-linecap:butt;stroke-linejoin:miter;stroke-miterlimit:4;stroke-dasharray:none;stroke-dashoffset:0;stroke-opacity:1;color-rendering:auto;image-rendering:auto;shape-rendering:auto;text-rendering:auto;enable-background:accumulate"
       d="m 297.89989,338.05522 c -0.35767,0.4169 -0.26331,0.56989 -0.14166,1.07605 0.24644,1.0539 0.71281,2.41247 1.38556,3.25097 0.41536,0.48976 0.98524,0.57771 1.60979,0.78258 0.35902,0.1159 0.77727,0.0672 1.0804,-0.16482 -0.14645,-0.62722 -0.11829,-1.57872 -1.04936,-0.74878 -0.22906,0.0666 -0.85147,-0.14332 -1.03227,-0.26773 -0.71097,-0.61167 -0.70498,-1.37386 -1.07957,-2.22808 -0.17438,-0.43262 -0.046,-1.00188 0.0697,-1.47249 0.0227,-0.0808 0.0954,-0.52477 0.0444,-0.59066 -0.19254,-0.15889 -0.42936,0.12402 -0.88702,0.36296 z"
       id="path4299"
       inkscape:connector-curvature="0"
       sodipodi:nodetypes="ccccccccccc" />
    <path
       style="color:#000000;font-style:normal;font-variant:normal;font-weight:normal;font-stretch:normal;font-size:medium;line-height:normal;font-family:sans-serif;text-indent:0;text-align:start;text-decoration:none;text-decoration-line:none;text-decoration-style:solid;text-decoration-color:#000000;letter-spacing:normal;word-spacing:normal;text-transform:none;direction:ltr;block-progression:tb;writing-mode:lr-tb;baseline-shift:baseline;text-anchor:start;white-space:normal;clip-rule:nonzero;display:inline;overflow:visible;visibility:visible;opacity:1;isolation:auto;mix-blend-mode:normal;color-interpolation:sRGB;color-interpolation-filters:linearRGB;solid-color:#000000;solid-opacity:1;fill:#000000;fill-opacity:1;fill-rule:evenodd;stroke:none;stroke-width:1px;stroke-linecap:butt;stroke-linejoin:miter;stroke-miterlimit:4;stroke-dasharray:none;stroke-dashoffset:0;stroke-opacity:1;color-rendering:auto;image-rendering:auto;shape-rendering:auto;text-rendering:auto;enable-background:accumulate"
       d="m 298.35183,343.9249 c -0.13737,0.99041 -0.26817,1.0068 0.12473,1.85049 0.39287,0.84369 0.49121,1.04023 1.46454,1.87079 1.24821,0.64884 1.50362,0.45762 1.22296,-0.1872 -0.91297,-0.77905 -1.43099,-1.27336 -1.73706,-1.93064 -0.30606,-0.65728 -0.42481,-1.49334 -0.30591,-2.35061 -0.33008,-0.3308 -0.43918,-0.94703 -0.76926,0.74717 z"
       id="path4301"
       inkscape:connector-curvature="0"
       sodipodi:nodetypes="ccccccc" />
    <path
       style="color:#000000;font-style:normal;font-variant:normal;font-weight:normal;font-stretch:normal;font-size:medium;line-height:normal;font-family:sans-serif;text-indent:0;text-align:start;text-decoration:none;text-decoration-line:none;text-decoration-style:solid;text-decoration-color:#000000;letter-spacing:normal;word-spacing:normal;text-transform:none;direction:ltr;block-progression:tb;writing-mode:lr-tb;baseline-shift:baseline;text-anchor:start;white-space:normal;clip-rule:nonzero;display:inline;overflow:visible;visibility:visible;opacity:1;isolation:auto;mix-blend-mode:normal;color-interpolation:sRGB;color-interpolation-filters:linearRGB;solid-color:#000000;solid-opacity:1;fill:#000000;fill-opacity:1;fill-rule:evenodd;stroke:none;stroke-width:1px;stroke-linecap:butt;stroke-linejoin:miter;stroke-miterlimit:4;stroke-dasharray:none;stroke-dashoffset:0;stroke-opacity:1;color-rendering:auto;image-rendering:auto;shape-rendering:auto;text-rendering:auto;enable-background:accumulate"
       d="m 290.45596,325.04416 c 0.54767,0.28885 1.15228,0.34992 1.47675,1.53156 0.91081,0.27474 1.31593,-0.11942 1.94074,0.66365 0.21785,0.20405 -0.28635,1.58057 -0.23249,1.63574 -0.0444,-0.3688 0.18607,0.91167 0.19917,1.02172 0.056,1.04929 1.17785,0.95209 2.00711,1.57629 0.63041,0.509 0.73738,0.39779 1.36758,0.90671 0.63568,0.16628 1.62034,0.85832 0.99027,-0.24116 -0.86628,-0.73897 -2.46988,-1.08867 -3.17802,-2.00717 -0.38076,-0.49958 -0.24156,-1.19876 -0.18267,-1.80801 -0.36027,-1.03101 -0.84741,-1.98471 -1.86395,-2.41887 -0.5251,-0.9296 -1.97186,-1.04623 -2.52449,-0.86046 z"
       id="path4303"
       inkscape:connector-curvature="0"
       sodipodi:nodetypes="cccccccccccc" />
    <path
       style="color:#000000;font-style:normal;font-variant:normal;font-weight:normal;font-stretch:normal;font-size:medium;line-height:normal;font-family:sans-serif;text-indent:0;text-align:start;text-decoration:none;text-decoration-line:none;text-decoration-style:solid;text-decoration-color:#000000;letter-spacing:normal;word-spacing:normal;text-transform:none;direction:ltr;block-progression:tb;writing-mode:lr-tb;baseline-shift:baseline;text-anchor:start;white-space:normal;clip-rule:nonzero;display:inline;overflow:visible;visibility:visible;opacity:1;isolation:auto;mix-blend-mode:normal;color-interpolation:sRGB;color-interpolation-filters:linearRGB;solid-color:#000000;solid-opacity:1;fill:#000000;fill-opacity:1;fill-rule:evenodd;stroke:none;stroke-width:1px;stroke-linecap:butt;stroke-linejoin:miter;stroke-miterlimit:4;stroke-dasharray:none;stroke-dashoffset:0;stroke-opacity:1;color-rendering:auto;image-rendering:auto;shape-rendering:auto;text-rendering:auto;enable-background:accumulate"
       d="m 293.41211,332.70312 c -0.31185,-0.28978 -0.6237,-0.82266 -0.93555,0.35547 0.22079,0.60417 0.34549,1.25636 0.71731,1.79407 0.16466,0.24073 0.37651,0.45086 0.62644,0.60242 1.50801,0.38259 0.80375,-0.34097 0.52149,-0.85352 -0.32247,-0.19191 -0.7885,-0.10978 -0.90769,-0.4485 -0.11487,-0.33455 0.10446,-1.1193 -0.022,-1.44994 z"
       id="path4305"
       inkscape:connector-curvature="0"
       sodipodi:nodetypes="ccccccc" />
    <path
       style="color:#000000;font-style:normal;font-variant:normal;font-weight:normal;font-stretch:normal;font-size:medium;line-height:normal;font-family:sans-serif;text-indent:0;text-align:start;text-decoration:none;text-decoration-line:none;text-decoration-style:solid;text-decoration-color:#000000;letter-spacing:normal;word-spacing:normal;text-transform:none;direction:ltr;block-progression:tb;writing-mode:lr-tb;baseline-shift:baseline;text-anchor:start;white-space:normal;clip-rule:nonzero;display:inline;overflow:visible;visibility:visible;opacity:1;isolation:auto;mix-blend-mode:normal;color-interpolation:sRGB;color-interpolation-filters:linearRGB;solid-color:#000000;solid-opacity:1;fill:#000000;fill-opacity:1;fill-rule:evenodd;stroke:none;stroke-width:1px;stroke-linecap:butt;stroke-linejoin:miter;stroke-miterlimit:4;stroke-dasharray:none;stroke-dashoffset:0;stroke-opacity:1;color-rendering:auto;image-rendering:auto;shape-rendering:auto;text-rendering:auto;enable-background:accumulate"
       d="m 295.83008,334.58594 c -0.73853,-0.8703 -0.78864,-0.36373 -0.46875,0.88281 0.91787,0.49249 1.30237,1.30386 2.33883,1.52435 0.52223,0.11343 1.55915,-0.0719 2.07328,-0.22158 1.42412,-1.58357 0.30574,-1.04839 -0.27539,-0.96093 -0.53655,0.16561 -1.25027,0.47905 -1.76074,0.26611 -0.71756,-0.28947 -1.22399,-1.13335 -1.90723,-1.49072 z"
       id="path4307"
       inkscape:connector-curvature="0"
       sodipodi:nodetypes="cccccccc" />
    <path
       style="color:#000000;font-style:normal;font-variant:normal;font-weight:normal;font-stretch:normal;font-size:medium;line-height:normal;font-family:sans-serif;text-indent:0;text-align:start;text-decoration:none;text-decoration-line:none;text-decoration-style:solid;text-decoration-color:#000000;letter-spacing:normal;word-spacing:normal;text-transform:none;direction:ltr;block-progression:tb;writing-mode:lr-tb;baseline-shift:baseline;text-anchor:start;white-space:normal;clip-rule:nonzero;display:inline;overflow:visible;visibility:visible;opacity:1;isolation:auto;mix-blend-mode:normal;color-interpolation:sRGB;color-interpolation-filters:linearRGB;solid-color:#000000;solid-opacity:1;fill:#000000;fill-opacity:1;fill-rule:evenodd;stroke:none;stroke-width:1px;stroke-linecap:butt;stroke-linejoin:miter;stroke-miterlimit:4;stroke-dasharray:none;stroke-dashoffset:0;stroke-opacity:1;color-rendering:auto;image-rendering:auto;shape-rendering:auto;text-rendering:auto;enable-background:accumulate"
       d="m 277.10547,317.2207 c -1.04885,-0.25827 -1.12712,0.0807 -0.64649,0.76368 1.46968,1.26489 3.26236,1.81855 5.14826,2.25265 1.13181,0.2731 2.28804,0.73086 3.43964,0.89188 0.77766,-0.19709 0.65247,-0.55833 0.13867,-0.99024 -2.00739,-0.27305 -4.24521,-0.13891 -6.07438,-1.0696 -0.78402,-0.39069 -1.33829,-1.28176 -2.0057,-1.84837 z"
       id="path4309"
       inkscape:connector-curvature="0"
       sodipodi:nodetypes="ccccccc" />
    <path
       style="color:#000000;font-style:normal;font-variant:normal;font-weight:normal;font-stretch:normal;font-size:medium;line-height:normal;font-family:sans-serif;text-indent:0;text-align:start;text-decoration:none;text-decoration-line:none;text-decoration-style:solid;text-decoration-color:#000000;letter-spacing:normal;word-spacing:normal;text-transform:none;direction:ltr;block-progression:tb;writing-mode:lr-tb;baseline-shift:baseline;text-anchor:start;white-space:normal;clip-rule:nonzero;display:inline;overflow:visible;visibility:visible;opacity:1;isolation:auto;mix-blend-mode:normal;color-interpolation:sRGB;color-interpolation-filters:linearRGB;solid-color:#000000;solid-opacity:1;fill:#000000;fill-opacity:1;fill-rule:evenodd;stroke:none;stroke-width:1px;stroke-linecap:butt;stroke-linejoin:miter;stroke-miterlimit:4;stroke-dasharray:none;stroke-dashoffset:0;stroke-opacity:1;color-rendering:auto;image-rendering:auto;shape-rendering:auto;text-rendering:auto;enable-background:accumulate"
       d="m 281.03312,314.61252 c -0.32458,0.18155 -0.24935,0.603 0.0135,1.13703 0.80123,1.1643 2.5634,1.10123 3.82527,1.61314 1.62459,0.66095 2.38577,0.99399 3.65816,2.25531 0.16997,0.20722 0.45094,1.36843 1.04906,1.26268 l -0.28355,-1.07771 c -1.11419,-1.35746 -2.57883,-2.33977 -4.17363,-2.9769 -1.17994,-0.49456 -3.1375,-0.24264 -2.87125,-1.35567 -0.19221,-0.16033 -0.72286,-0.82725 -1.21758,-0.85788 z"
       id="path4311"
       inkscape:connector-curvature="0"
       sodipodi:nodetypes="ccccccccc" />
    <path
       style="color:#000000;display:inline;overflow:visible;visibility:visible;opacity:1;fill:#ffffff;fill-opacity:1;fill-rule:evenodd;stroke:#000000;stroke-width:0.70866144;stroke-linecap:round;stroke-linejoin:round;stroke-miterlimit:4;stroke-dasharray:none;stroke-dashoffset:0;stroke-opacity:1;marker:none;enable-background:accumulate"
       d="m 274.91964,304.39346 c 0,1.07745 -0.71954,1.9509 -1.60714,1.9509 -0.8876,0 -0.91964,-0.99845 -0.91964,-2.0759 0,-1.07745 0.032,-1.82589 0.91964,-1.82589 0.8876,0 1.60714,0.87344 1.60714,1.95089 z"
       id="path4249-9"
       inkscape:connector-curvature="0"
       sodipodi:nodetypes="sssss" />
    <path
       style="fill:#ffffff;fill-rule:evenodd;stroke:#ff0000;stroke-width:0.35433072;stroke-linecap:butt;stroke-linejoin:miter;stroke-miterlimit:4;stroke-dasharray:none;stroke-opacity:1"
       d="m 255.19284,295.26491 -1.26269,1.6415 -1.89404,-0.63135 c -1.61636,-0.60564 -3.01275,-2.09112 -4.29314,-4.04061 -1.79323,-0.84958 -3.58621,-1.69992 -5.05077,-3.53553 -2.91598,-0.65973 -3.4114,-1.66524 -4.04061,-2.65165 -2.7323,-5.92677 -5.78627,-18.43082 -4.79822,-20.32932 1.29206,-1.72477 8.1277,2.77029 11.61675,6.43972 5.22381,5.49388 7.7521,10.31387 10.35407,15.15229 l 1.76776,6.31345"
       id="path4170-6"
       inkscape:connector-curvature="0"
       sodipodi:nodetypes="cccccccscc" />
    <path
       style="color:#000000;font-style:normal;font-variant:normal;font-weight:normal;font-stretch:normal;font-size:medium;line-height:normal;font-family:sans-serif;text-indent:0;text-align:start;text-decoration:none;text-decoration-line:none;text-decoration-style:solid;text-decoration-color:#000000;letter-spacing:normal;word-spacing:normal;text-transform:none;direction:ltr;block-progression:tb;writing-mode:lr-tb;baseline-shift:baseline;text-anchor:start;white-space:normal;clip-rule:nonzero;display:inline;overflow:visible;visibility:visible;opacity:1;isolation:auto;mix-blend-mode:normal;color-interpolation:sRGB;color-interpolation-filters:linearRGB;solid-color:#000000;solid-opacity:1;fill:#000000;fill-opacity:1;fill-rule:evenodd;stroke:none;stroke-width:1px;stroke-linecap:butt;stroke-linejoin:miter;stroke-miterlimit:4;stroke-dasharray:none;stroke-dashoffset:0;stroke-opacity:1;color-rendering:auto;image-rendering:auto;shape-rendering:auto;text-rendering:auto;enable-background:accumulate"
       d="m 233.57564,264.52349 c -1.75593,0.17858 -1.63021,2.65526 -1.55675,3.8732 0.65657,5.19497 2.17921,10.44962 3.93416,15.37338 0.72283,1.86503 2.00198,3.74439 4.03743,4.5744 1.39654,0.33446 2.52883,1.38228 3.48602,2.44066 1.06542,0.85863 2.02468,1.57145 3.257,2.15153 1.26656,1.9464 3.14526,3.38582 5.48505,3.957 0.46814,0.10083 1.01166,0.44831 1.43322,0.39673 l 1.8704,-1.41676 c 1.01169,-0.48231 -0.4615,-1.38356 -1.0286,-0.59769 -0.35685,0.27439 -1.0349,1.08817 -1.56291,0.80173 -0.69676,-0.18225 -1.29085,-0.61861 -1.82495,-1.15856 -0.14195,-0.1435 1.26214,-0.61644 1.15663,-1.18882 -0.0538,-0.29168 -0.38868,-3.00368 -0.76396,-3.28045 -0.26312,-0.19404 -1.12902,-1.41127 -1.4604,-1.84284 -0.20659,-0.26905 -1.12711,-2.16169 -1.80301,-3.33499 -0.0142,-0.0247 -0.15263,-0.97228 -0.30387,-1.39783 -0.0897,-0.25247 -0.93146,-1.65576 -1.49929,-1.60575 -0.595,0.0524 -3.21633,-2.43646 -4.45995,-3.52834 -0.0188,-0.0165 -1.59653,-2.58645 -1.76701,-2.45137 -0.17048,0.13505 -2.03878,-4.7334 -2.41514,-3.83649 -0.39711,0.94636 -0.0833,2.34585 0.69468,4.07963 0.60127,1.3399 1.9612,2.22441 1.91647,2.29751 -0.10261,0.16769 0.063,1.49802 0.1794,1.54676 0.74785,0.31189 1.97103,0.17662 2.40825,1.60475 0.0584,0.6705 -1.92869,-0.15111 -1.48685,0.82045 0.45653,1.00386 1.49423,0.98441 2.2021,0.79846 0.32228,0.69931 0.23605,0.49435 0.59785,1.04544 0.6991,1.06489 1.94566,0.9369 1.98554,0.96376 0.39629,0.26687 0.89016,1.22426 0.41916,1.33581 -0.90275,0.2138 -1.32198,0.68959 -0.35497,1.23693 0.85145,-0.3589 1.43789,-0.18928 1.77764,0.0149 0.88831,0.53387 0.641,2.32374 0.67795,2.52331 0.14663,0.79204 1.56456,1.3754 1.54831,1.35473 -0.30143,-0.38359 -0.71515,1.05724 -0.99927,0.69821 -0.7961,-0.71632 -1.31058,-1.9941 -2.44826,-2.26762 -1.63325,-0.76505 -3.08999,-2.10772 -4.18623,-3.57182 -1.25816,-0.47871 -2.3686,-0.76708 -3.69331,-1.92173 -2.0994,-4.97395 -3.17684,-8.71017 -4.128,-14.01988 0.0362,-1.25065 -0.44558,-2.99532 -0.14417,-4.1557 2.31414,0.33465 3.33849,1.72553 5.22495,3.00959 4.87174,3.5466 8.68236,7.59064 11.73717,12.72921 0.96791,1.74961 2.17729,3.71727 2.96719,5.5486 0.73219,1.52605 1.51948,2.95569 1.60019,5.62184 0.4132,-0.17125 2.01677,0.40608 1.58768,-0.23909 0.1949,-2.04122 -0.32602,-5.02134 -0.90914,-6.99101 -2.81529,-5.42816 -6.62042,-10.76136 -10.89217,-15.17785 -2.69555,-2.74069 -5.89244,-4.89915 -9.44815,-6.41415 -0.65998,-0.24132 -2.33687,-0.46814 -3.04859,-0.39978 z"
       id="path4170"
       inkscape:connector-curvature="0"
       sodipodi:nodetypes="ccccccccccccssssssscsssscscssscssscccccccccccccccc" />
    <path
       style="color:#000000;font-style:normal;font-variant:normal;font-weight:normal;font-stretch:normal;font-size:medium;line-height:normal;font-family:sans-serif;text-indent:0;text-align:start;text-decoration:none;text-decoration-line:none;text-decoration-style:solid;text-decoration-color:#000000;letter-spacing:normal;word-spacing:normal;text-transform:none;direction:ltr;block-progression:tb;writing-mode:lr-tb;baseline-shift:baseline;text-anchor:start;white-space:normal;clip-rule:nonzero;display:inline;overflow:visible;visibility:visible;opacity:1;isolation:auto;mix-blend-mode:normal;color-interpolation:sRGB;color-interpolation-filters:linearRGB;solid-color:#000000;solid-opacity:1;fill:#000000;fill-opacity:1;fill-rule:evenodd;stroke:none;stroke-width:1px;stroke-linecap:butt;stroke-linejoin:miter;stroke-miterlimit:4;stroke-dasharray:none;stroke-dashoffset:0;stroke-opacity:1;color-rendering:auto;image-rendering:auto;shape-rendering:auto;text-rendering:auto;enable-background:accumulate"
       d="m 247.14591,315.05786 c 0.13106,1.21348 0.0387,3.51206 -0.59016,4.77737 l -0.57084,1.35449 c -0.31379,2.28908 -0.0352,2.25103 0.47212,1.31419 0.36257,-0.83187 0.27159,-1.81034 0.61389,-2.64724 0.57819,-1.61088 0.66716,-2.5287 0.54076,-3.14141 -0.48671,0.22097 -0.13376,-1.63519 -0.46577,-1.6574 z"
       id="path4425"
       inkscape:connector-curvature="0"
       sodipodi:nodetypes="ccccccc" />
    <path
       style="color:#000000;font-style:normal;font-variant:normal;font-weight:normal;font-stretch:normal;font-size:medium;line-height:normal;font-family:sans-serif;text-indent:0;text-align:start;text-decoration:none;text-decoration-line:none;text-decoration-style:solid;text-decoration-color:#000000;letter-spacing:normal;word-spacing:normal;text-transform:none;direction:ltr;block-progression:tb;writing-mode:lr-tb;baseline-shift:baseline;text-anchor:start;white-space:normal;clip-rule:nonzero;display:inline;overflow:visible;visibility:visible;opacity:1;isolation:auto;mix-blend-mode:normal;color-interpolation:sRGB;color-interpolation-filters:linearRGB;solid-color:#000000;solid-opacity:1;fill:#000000;fill-opacity:1;fill-rule:evenodd;stroke:none;stroke-width:1px;stroke-linecap:butt;stroke-linejoin:miter;stroke-miterlimit:4;stroke-dasharray:none;stroke-dashoffset:0;stroke-opacity:1;color-rendering:auto;image-rendering:auto;shape-rendering:auto;text-rendering:auto;enable-background:accumulate"
       d="m 249.3974,319.87297 c -0.42594,0.86758 -0.34733,0.1798 -0.75722,1.0527 -0.41827,1.41014 -0.72975,2.79115 -0.50672,4.02639 0.39442,-0.36065 0.2806,1.00237 0.60873,1.06161 -0.0604,-1.16603 -0.54742,-5.13251 0.87727,-4.83654 1.34251,-1.74179 1.2339,-2.34792 1.2691,-3.0666 -0.326,0.29587 -1.00739,1.99247 -1.49116,1.76244 z"
       id="path4427"
       inkscape:connector-curvature="0"
       sodipodi:nodetypes="ccccccc" />
    <path
       style="color:#000000;font-style:normal;font-variant:normal;font-weight:normal;font-stretch:normal;font-size:medium;line-height:normal;font-family:sans-serif;text-indent:0;text-align:start;text-decoration:none;text-decoration-line:none;text-decoration-style:solid;text-decoration-color:#000000;letter-spacing:normal;word-spacing:normal;text-transform:none;direction:ltr;block-progression:tb;writing-mode:lr-tb;baseline-shift:baseline;text-anchor:start;white-space:normal;clip-rule:nonzero;display:inline;overflow:visible;visibility:visible;opacity:1;isolation:auto;mix-blend-mode:normal;color-interpolation:sRGB;color-interpolation-filters:linearRGB;solid-color:#000000;solid-opacity:1;fill:#000000;fill-opacity:1;fill-rule:evenodd;stroke:none;stroke-width:1px;stroke-linecap:butt;stroke-linejoin:miter;stroke-miterlimit:4;stroke-dasharray:none;stroke-dashoffset:0;stroke-opacity:1;color-rendering:auto;image-rendering:auto;shape-rendering:auto;text-rendering:auto;enable-background:accumulate"
       d="m 246.97778,323.92934 c -0.33073,0.0449 -0.2416,1.23895 -0.57233,1.28382 0.24771,1.88459 -0.0635,0.85836 0.84889,3.82794 -0.18842,0.88363 -0.21467,3.59185 0.39601,4.30425 0.17891,-0.0484 0.23529,-0.40307 0.17851,-1.04067 -0.50328,-1.11282 -0.75965,-1.77176 -0.32416,-3.3392 -0.96709,-1.82711 -0.39607,-3.36582 -0.52692,-5.03614 z"
       id="path4429"
       inkscape:connector-curvature="0"
       sodipodi:nodetypes="ccccccc" />
    <path
       style="fill:#000000;fill-rule:evenodd;stroke:none;stroke-width:0.35433072;stroke-linecap:butt;stroke-linejoin:miter;stroke-miterlimit:4;stroke-dasharray:none;stroke-opacity:1"
       d="m 256.5,320.4247 c 0.8571,-0.82526 1.1022,-1.43311 1.5625,-1.25 0.85124,0.24408 1.16516,0.16576 1.4375,0.0625 1.19836,-0.3068 0.81492,-1.26493 1.125,-1.9375 0.71655,0.3751 0.86655,-0.47402 0.81732,-0.95283 -0.0314,-0.30572 0.52335,-0.18517 0.87018,0.14033 1.39821,1.05739 0.11897,1.24169 -1.125,1.4375 -0.10391,0.62474 -0.22904,1.27071 0.125,1.4375 0.49653,-0.12798 0.66218,0.0277 0.75,0.25 0.92584,0.62964 0.65042,-0.40914 0.5625,-1.1875 0.67039,-0.0404 0.48717,-0.36539 0.6875,-0.5625 1.46829,-0.61068 1.20255,1.04345 0.625,1 l -0.625,0.1875 c -0.16542,0.15858 -0.19169,0.345 -0.0625,0.5625 0.52704,0.39382 1.43826,1.28917 0,1.125 -0.93924,0.16783 -1.04379,-0.22081 -1.3125,-0.5 -0.15147,0.57394 -0.6972,0.49078 -1.1875,0.5 0.0894,0.27083 0.24767,0.54167 0,0.8125 -1.52111,1.40058 -5.21733,-1.4033 -4.25,-1.125 z"
       id="path4440"
       inkscape:connector-curvature="0"
       sodipodi:nodetypes="ccccscccccccccccccc" />
    <path
       style="fill:none;fill-rule:evenodd;stroke:#000000;stroke-width:0.77952754;stroke-linecap:round;stroke-linejoin:miter;stroke-miterlimit:4;stroke-dasharray:none;stroke-opacity:1"
       d="m 242.27246,317.67826 c 9.00764,0.25877 11.60583,-2.08462 17.67767,-1.67938"
       id="path4442"
       inkscape:connector-curvature="0"
       sodipodi:nodetypes="cc" />
    <path
       style="fill:none;fill-rule:evenodd;stroke:#000000;stroke-width:0.77952754;stroke-linecap:round;stroke-linejoin:miter;stroke-miterlimit:4;stroke-dasharray:none;stroke-opacity:1"
       d="m 243.95184,322.15543 c 8.65409,-1.68577 8.33546,-4.02916 14.4073,-3.62392"
       id="path4442-1"
       inkscape:connector-curvature="0"
       sodipodi:nodetypes="cc" />
    <path
       style="fill:none;fill-rule:evenodd;stroke:#000000;stroke-width:0.77952754;stroke-linecap:round;stroke-linejoin:miter;stroke-miterlimit:4;stroke-dasharray:none;stroke-opacity:1"
       d="m 247.59867,324.52796 c 5.27323,-1.533 5.74441,-1.09895 10.05267,-4.86688"
       id="path4442-0"
       inkscape:connector-curvature="0"
       sodipodi:nodetypes="cc" />
    <path
       style="fill:none;fill-rule:evenodd;stroke:#000000;stroke-width:0.77952754;stroke-linecap:round;stroke-linejoin:miter;stroke-miterlimit:4;stroke-dasharray:none;stroke-opacity:1"
       d="m 274.22367,314.46546 c 4.02969,-0.99091 4.28364,1.92937 5.74017,3.32062"
       id="path4442-9"
       inkscape:connector-curvature="0"
       sodipodi:nodetypes="cc" />
    <path
       style="fill:none;fill-rule:evenodd;stroke:#000000;stroke-width:0.77952754;stroke-linecap:round;stroke-linejoin:miter;stroke-miterlimit:4;stroke-dasharray:none;stroke-opacity:1"
       d="m 274.22435,315.68509 c 4.02969,-0.99091 3.78364,3.24186 5.24017,4.63311"
       id="path4442-9-7"
       inkscape:connector-curvature="0"
       sodipodi:nodetypes="cc" />
    <path
       style="fill:none;fill-rule:evenodd;stroke:#000000;stroke-width:0.77952754;stroke-linecap:round;stroke-linejoin:miter;stroke-miterlimit:4;stroke-dasharray:none;stroke-opacity:1"
       d="m 273.97435,313.62259 c 4.02969,-0.99091 4.78364,0.24186 6.24017,1.63311"
       id="path4442-9-0"
       inkscape:connector-curvature="0"
       sodipodi:nodetypes="cc" />
  </g>
</svg>
