<svg width="192" height="192" viewBox="0 0 192 192" fill="none" xmlns="http://www.w3.org/2000/svg">
<path d="M135.426 14.7931C135.397 14.6799 135.355 14.5698 135.315 14.4601C134.544 12.3625 137.155 10.1554 138.931 11.5483C151.749 19.7451 161.075 33.195 164.963 48.1981C165.489 50.2277 168.404 50.4457 168.999 48.4354C169.774 45.8205 170.565 43.2125 171.572 40.6825C171.97 39.2859 174.22 38.9286 174.828 40.4118C181.967 52.8515 185.861 67.1858 185.924 81.6609C185.935 104.386 180.093 127.609 166.756 145.96C154.257 163.802 134.722 175.722 113.89 179.804C92.9522 183.896 70.6959 181.038 51.465 171.489C32.8518 162.005 17.0965 145.732 9.68475 125.498C5.88463 115.007 3.85372 103.758 4.23059 92.5524C4.19918 83.6313 6.72212 75.0351 9.22413 66.6012C10.9723 62.2165 8.08305 57.8642 8.08305 53.4145C6.41762 38.0856 17.068 23.1313 31.1536 18.8851C31.3148 18.8365 31.468 18.7643 31.6228 18.6982C33.0466 18.09 35.0563 19.2479 35.0021 20.8811C34.9981 21.0036 34.9911 21.1264 34.9978 21.2488C35.168 24.3615 35.0947 27.4806 35.0675 30.6012C35.0565 31.8626 36.2149 32.8064 37.4663 32.6468C40.6407 32.2422 43.8603 32.2031 47.0005 31.6992C47.4581 31.6258 47.8684 31.3821 48.1743 31.034C53.9984 24.4057 62.3172 20.1808 71.0728 20.3178C73.1142 20.1879 76.8096 20.2095 76.7363 23.1868C75.5429 30.852 72.7268 38.2357 72.2557 46.02C71.6799 49.9825 74.8938 53.5228 78.5055 54.2265C81.8555 54.9302 85.4776 55.1359 88.3355 57.312C95.5798 62.0324 95.7683 74.3422 88.9741 79.5606C83.4467 83.3932 76.4851 83.6963 70.5075 86.4787C69.3882 86.9826 68.8729 87.9948 68.5754 89.1233C68.2261 90.4482 69.4868 91.661 70.8249 91.3662C76.2859 90.1632 81.4595 87.8857 86.7024 85.9266C91.675 84.0211 97.6108 85.3744 101.233 89.4127C106.059 94.5553 106.279 103.563 101.275 108.662C98.6843 111.149 95.8034 113.289 92.7637 115.152C91.1669 116.131 91.5115 118.601 93.3689 118.843C99.0094 119.578 104.816 119.277 109.88 116.414C118.747 111.607 123.374 101.354 124.882 91.5239C125.771 83.9128 126.054 76.1069 124.798 68.5175C123.615 61.3287 119.689 55.1467 116.748 48.6616C116.109 47.6331 116.8 45.7276 118.182 45.9767C124.712 46.8232 131.302 48.4438 137.124 51.7024C138.485 52.4638 140.254 51.5973 140.289 50.0387C140.561 38.1113 138.366 26.2796 135.426 14.7931ZM54.2772 45.4653C53.7412 46.5973 52.3417 47.0496 51.2251 46.482C48.2878 44.9888 45.026 44.1325 41.7711 45.0023C37.1975 45.5843 33.2642 48.0819 29.5744 50.7865C28.5807 51.5149 27.169 51.2027 26.6098 50.1049C25.8445 48.6028 25.1013 47.0895 24.3776 45.5668C23.642 44.019 21.492 44.049 21.0647 45.7085C20.122 49.369 20.0816 53.2505 21.3049 56.8898C21.8911 59.6614 23.765 62.4113 22.7286 65.302C21.7969 68.4634 20.4465 71.484 19.5776 74.6778C13.5267 95.3781 17.1698 118.969 29.5228 136.476C38.4944 149.251 51.7477 158.27 65.9431 163.726C85.3625 171.067 107.336 170.233 126.504 162.438C141.998 156.148 154.749 143.654 162.548 128.54C170.712 113.473 173.924 96.0364 173.277 78.8703C173.206 76.9685 170.689 76.2884 169.488 77.7646C166.333 81.6423 162.681 85.083 158.779 88.1352C157.435 89.4834 155.021 87.9216 155.064 86.1711C155.066 86.0731 155.071 85.9749 155.067 85.8769C154.669 76.528 155.078 67.1262 153.89 57.8209V57.8209C153.524 55.8996 152.248 56.1631 152.1 58.1134C151.537 65.5205 149.511 72.7681 147.106 79.7734C146.828 80.5854 146.057 81.1238 145.198 81.1164C144.909 81.114 144.613 81.1115 144.331 81.109C143.653 81.103 143.022 80.7536 142.682 80.1666C142.289 79.4882 141.922 78.7956 141.571 78.0936C140.604 76.1561 137.929 76.7959 137.968 78.9612C138.068 84.644 137.845 90.3263 136.805 95.9195C134.628 107.352 129.216 118.742 119.731 125.476C111.796 131.366 101.61 133.065 92.0624 131.766C80.2736 130.672 69.6028 124.099 61.236 115.735C60.9199 115.419 60.6985 115 60.738 114.554C60.971 111.93 64.6177 112.13 66.6499 111.452C66.7659 111.414 66.8831 111.38 67.0033 111.358C75.6492 109.773 84.0405 106.352 90.9409 100.702C92.0017 99.8337 91.6966 98.2168 90.3383 98.4031C88.3123 98.6809 86.3136 100.081 84.3487 100.645C84.257 100.671 84.1668 100.702 84.0789 100.739C76.0049 104.16 67.2592 105.093 58.6423 105.782C58.5475 105.789 58.4531 105.805 58.3591 105.82C56.5688 106.105 55.4809 103.976 55.7258 102.361C55.7781 96.9047 55.3384 91.3398 56.4481 85.9591C57.8089 79.5566 63.0963 74.7957 69.1096 73.2097C69.2038 73.1848 69.2962 73.1539 69.3864 73.1172C72.33 71.9202 75.7286 71.5873 78.6678 70.3597C80.1915 69.7234 79.7096 67.836 78.0981 67.4759C72.9761 66.3313 67.97 64.3745 64.6136 59.9645C60.3028 55.4599 59.1434 49.2896 59.636 43.2221C59.8001 41.2001 57.4466 39.9908 56.3546 41.7005C55.5853 42.905 54.8934 44.1639 54.2772 45.4653Z" fill="url(#paint0_linear_578_156)"/>
<defs>
<linearGradient id="paint0_linear_578_156" x1="152" y1="96" x2="81" y2="99" gradientUnits="userSpaceOnUse">
<stop stop-color="#FD2E00"/>
<stop offset="1" stop-color="#FF9900"/>
</linearGradient>
</defs>
</svg>
