<svg height="128" viewBox="0 0 128 128" width="128" xmlns="http://www.w3.org/2000/svg" xmlns:xlink="http://www.w3.org/1999/xlink"><linearGradient id="a" gradientTransform="matrix(.7484169 .70934325 -.73012993 .72815243 -28.631479 -21.645691)" gradientUnits="userSpaceOnUse" x1="123.6107" x2="121.95718" y1="-84.575989" y2="75.473022"><stop offset="0" stop-color="#f68d86"/><stop offset=".16973987" stop-color="#d94b4c"/><stop offset=".17347297" stop-color="#fff"/><stop offset=".25294703" stop-color="#dedede"/><stop offset=".25538498" stop-color="#ff881e"/><stop offset=".86377585" stop-color="#f73c15"/><stop offset=".86472994" stop-color="#f2e0d8"/><stop offset=".97617769" stop-color="#f6f3eb"/><stop offset=".98050213" stop-color="#c6c6c6"/><stop offset=".98050213" stop-color="#282828"/><stop offset=".98717457" stop-color="#3f3f3f"/></linearGradient><g fill-rule="evenodd" stroke-linecap="round" transform="matrix(1.0120475 0 0 1.0120475 -1.819815 -1.164898)"><path d="m122.01429 8.0417063c6.30352 5.9744297 6.42587 15.7230977.27431 21.8579987l-86.240871 86.007285c-8.459279 4.20102-25.431585 12.57027-30.959693 8.12218-3.75997-6.77739 4.405496-21.54154 8.203283-29.690522l86.240866-86.0072774c6.151565-6.1349009 16.178585-6.2640874 22.482115-.2896502z" fill="#333" stroke-width="1.23334"/><path d="m121.09825 7.8784067c6.30119 5.9722233 6.42349 15.7172903.2742 21.8499253l-86.209 85.975518c-8.456155 4.19947-25.4221926 12.56563-30.9482555 8.11918-3.75858119-6.77489 4.4038673-21.53358 8.2002505-29.679557l86.208999-85.9755091c6.149296-6.1326348 16.172606-6.2617736 22.473816-.2895431z" fill="url(#a)" stroke-width="1.23288"/></g></svg>
