<svg height="682.66669" viewBox="0 0 682.66669 682.66669" width="682.66669" xmlns="http://www.w3.org/2000/svg" xmlns:xlink="http://www.w3.org/1999/xlink"><linearGradient id="a" gradientUnits="userSpaceOnUse" x1="351.53375" x2="351.53375" y1="292.51978" y2="671.15369"><stop offset="0" stop-color="#ff01f1"/><stop offset="1" stop-color="#02b6ff"/></linearGradient><path d="m343.13498 9.4876222c-29.05189 2.2155378-24.80306 89.7391398 23.29723 88.7898418 17.14003-3.216001 35.12807 6.875076 36.93028 22.218926v53.60735 29.866 284.46419 2.01559h-.009c.0849 2.98007-.0336 5.91057-.32384 8.79682-.0319.42118-.0885.83704-.13981 1.25468-.19465 1.68645-.41055 3.36405-.73794 5.00628-.17872.93613-.43178 1.84749-.65652 2.76946-.30261 1.22635-.54681 2.47217-.92375 3.67198-2.2262 7.12629-5.74599 13.73585-10.61423 19.55439-.17873.20704-.39994.39816-.57689.60344-1.48473 1.72008-3.04377 3.39591-4.76916 4.96558-1.74131 1.58381-3.58526 3.05615-5.52301 4.42406-13.77479 9.75773-32.31517 14.05085-53.03044 12.06887-26.41347-2.48279-52.61812-14.4614-73.7988-33.73265-21.17714-19.26948-34.34494-43.11168-37.07016-67.14146-2.45094-21.49744 3.9905-40.41477 18.12453-53.27465.0372-.0283.0707-.0548.0991-.0849.54682-.49019 1.1485-.92021 1.71124-1.3927 10.11519-8.47475 23.30069-13.61021 38.34784-15.02592.16988-.0159.33269-.0425.49372-.0567 1.58382-.13981 3.19772-.20352 4.82578-.26368.85119-.0283 1.69177-.0885 2.55534-.0956.28668-.004.55921-.0336.84589-.0336.51318 0 1.04585.0673 1.55903.0743 2.37131.0372 4.76031.13448 7.19708.3433.30792.0248.60167.0142.91844.0425.22474.023.44771.0726.67246.0956 48.26542 15.74024 70.3934 11.42788 69.4981-57.28816-12.224-111.47348-170.55387-51.82983-215.65168-12.47057-42.24987 38.43278-62.687308 93.89291-56.065364 152.15085 5.908789 51.8908 32.545244 101.74299 75.010994 140.3899 41.38984 37.65592 94.08936 61.20436 148.45057 66.32584 7.49083.69334 15.01706 1.0508 22.36102 1.0508 51.91734 0 100.09192-17.80211 135.64907-50.14755 33.6831-30.66764 53.85863-72.77949 56.81921-118.59339l.27429-300.46692h.0301v-80.33581h.0106v-1.40154c.30437-14.17825 11.86536-25.58528 26.12148-25.58528 62.74501 10.70717 83.1506-87.4436003 46.41886-85.934957" fill="url(#a)"/></svg>
