<svg height="128" viewBox="0 0 128 128" width="128" xmlns="http://www.w3.org/2000/svg" xmlns:xlink="http://www.w3.org/1999/xlink"><linearGradient id="a" gradientUnits="userSpaceOnUse" x1="59.976921" x2="98.198868" y1="-.712561" y2="126.38938"><stop offset="0" stop-color="#1cff69"/><stop offset="1" stop-color="#009530"/></linearGradient><g stroke-width="1.78628"><path d="m104.73391 24.278676c-.22329-4.109845-2.42823-9.83851-11.457332-13.997198-.160488-.069781-.320974-.146531-.488438-.216308-5.882173-2.595691-14.44377-4.4517515-24.435789-3.5446539-7.766143.7117204-15.825345 3.0562174-23.431004 7.1939729-6.838112 3.705141-13.138946 8.784883-18.253576 15.071759-3.007374 3.94936-5.623998 8.422045-7.500992 13.243613-.809408 2.086322-1.479264 4.249398-1.981657 6.454341-.648922 2.86782-1.004783 6.000793-.86523 9.308208.369818 5.247204 2.002591 10.982846 5.658888 16.139342 1.723484 2.449162 3.872605 4.668058 6.349676 6.517142 2.470094 1.856058 5.289072 3.349279 8.3732 4.33313 4.940189 1.542063 9.796645 1.542063 13.808801.962917 2.135167-.307017 4.088915-.781498 5.819376-1.311801 2.128188-.648923 4.081934-1.395533 5.630977-2.0305 3.363235-1.409489 6.524117-3.098086 9.036077-4.465707 2.518939-1.360645 4.982055-2.735245 7.354461-3.844695 1.409488-.641945 3.084129-1.353667 4.744814-1.897924.439591-.139553.879185-.27213 1.318778-.383773 1.64673-.432616 3.279504-.627989 4.72388-.488438 1.235048.111639 2.281698.502393 2.986441.976876.307018.181418.56519.432615.7815.697765.188396.251198.313996.48146.383771.614035.07675.153509.11862.481459-.01396.955941-.1256.481458-.397729 1.039671-.816389 1.590908-.439593.572168-1.039672 1.158291-1.849081 1.765349-.795454.593102-1.744416 1.165271-2.846888 1.716505-2.428228 1.116427-4.835523 1.870017-8.226669 3.077153-3.077151 1.095493-6.740425 2.511959-10.180416 4.758767-1.800238 1.214115-3.607454 2.735245-5.156494 4.570373-1.542067 1.842103-2.881778 4.061-3.635365 6.656694-.669855 2.602671-.704745 5.491421.195374 8.261561.453549 1.40949 1.158292 2.7492 2.051434 3.94238.907096 1.20016 2.044456 2.28868 3.391148 3.16088 2.400316 1.52114 5.037873 2.07934 7.326548 2.14215h.774522c1.932813-.0488 3.781894-.42564 5.463513-.9699 1.75837-.51635 3.356257-1.20714 4.72388-1.82118 1.395533-.63497 2.470093-1.1513 3.600475-1.57695 1.025716-.43959 1.918857-.7187 2.728269-.83732.767542-.11165 1.395533-.0628 1.856058.0628.202352.0488.383773.13955.530303.22329.139553.0907.237241.16747.286089.20933.07673.0349.146524.0837.195376.0978.05582 0 .104643.0279.174436.0139.06283-.0139 0 .20235-.251189.48145-.29307.32796-.718707.65591-1.381585 1.14435-.634969.46052-1.500199 1.06758-2.288675 1.8142-.872209.82337-1.723485 1.87001-2.246808 3.16089-.530304 1.29783-.614035 2.63755-.390749 3.8098.251194 1.37459.914072 2.49801 1.681617 3.29345 1.032694 1.08154 2.232854 1.54207 3.119018 1.66767.216306.0279.425637.0419.614033.0349 1.576959-.0558 2.211928-1.20713 2.49103-1.54904-.390752-.35586-.788476-1.26296-1.102475-2.03748-.03492-.0907-.06972-.16746-.09764-.25817-.125606-.34191-.237245-.71172-.209332-1.04665.01401-.24422.07673-.49542.195376-.65591.09764-.13955.237245-.26515.362839-.31399.125595-.0558.334927-.2163.711723-.43262.467494-.27213.795449-.42563 1.625794-.85127.648925-.32796 1.618821-.83732 2.539865-1.52113.921053-.69079 1.981663-1.69557 2.735253-3.09111.66986-1.24901 1.00478-2.63058 1.00478-3.9982.007-1.36065-.32097-2.6864-.87918-3.86563-.58613-1.19319-1.39554-2.20495-2.316594-3.04227-.928027-.84429-1.981649-1.51415-3.091097-2.01654-2.211921-.99083-4.549446-1.26994-6.593902-1.20016-2.114233.0768-4.061003.5303-5.658888 1.01176-1.576954.50937-3.216704 1.17225-4.374998 1.61882-1.332734.51635-2.358449.87221-3.335325 1.08851-.914073.15351-1.604861.13956-2.107254.0279-.0628-.007-.125598-.0209-.188397-.0419-.50937-.15351-.788476-.42564-.711722-.55822.04187-.0488.04884-.11862.0628-.23026s.02791-.23026.08374-.33493c.08374-.23026.223287-.62101.50937-.99083.209331-.4047.558213-.86523 1.130383-1.38855.586124-.53728 1.360645-1.07456 2.281696-1.556021 1.856059-1.07456 4.06798-1.870014 6.942777-2.728267 2.658491-.802431 6.293857-1.786283 9.643138-3.119016 1.800229-.676836 3.677224-1.514156 5.491428-2.567781 1.856055-1.081539 3.698165-2.400317 5.372805-4.04007 1.73744-1.709528 3.2516-3.726075 4.36104-5.986836 1.13736-2.330542 1.877-4.9681 1.94677-7.794056.0697-2.791066-.52332-5.421647-1.51416-7.745208-1.01873-2.414274-2.51195-4.57735-4.28428-6.391543-3.76096-3.837718-8.51974-5.924039-12.790071-6.82416-4.954144-1.046648-9.601269-.662877-13.173835.0628-.990829.202352-1.925836.432615-2.798042.676833-3.300437.92803-6.042661 2.184009-7.96152 3.146926-3.125994 1.549043-6.231056 3.426035-8.352267 4.661083-2.456137 1.437399-4.66108 2.679424-6.866024 3.635365-.98385.432614-2.05841.823363-3.181815 1.088515-.893142.20933-1.76535.348883-2.623603.390749-1.639752.07675-3.028306-.202351-3.963315-.718699-.544257-.279107-1.10247-.683813-1.611839-1.221093-.509371-.544257-.941985-1.172248-1.235048-1.835125-.676833-1.486244-.886162-3.286481-.593102-4.989032.08373-1.060605.327952-2.128189.711723-3.195772.300039-.823364.711722-1.653706 1.235047-2.498003 1.228069-1.981658 3.007375-3.851672 5.100673-5.463514 3.244616-2.867821 7.047444-4.940188 10.906093-6.2799 4.291266-1.500199 8.401111-2.009567 12.001586-2.037479 4.612237-.02791 8.743017.725678 11.980654 1.088516.09071.007.18142.02093.272128.02791 11.137071.385707 22.192037-4.550869 21.930767-14.848496z" fill="#006020"/><path d="m104.90137 19.764126c-.22329-4.291264-2.42125-10.2711254-11.443374-14.6112327-.160487-.0767547-.320973-.1535095-.488437-.2302631-5.868218-2.7073359-14.422836-4.64712627-24.4009-3.6981636-7.752187.7396335-15.804414 3.1887927-23.396115 7.507969-6.831137 3.8726054-13.12499 9.1756314-18.232643 15.7346384-3.000397 4.123802-5.617021 8.79186-7.487037 13.829734-.809408 2.177032-1.479263 4.430819-1.981656 6.733449-.648924 2.99342-1.004783 6.265945-.865232 9.71989.369817 5.477468 2.00259 11.464306 5.65191 16.851063 1.723484 2.553827 3.865628 4.870413 6.342699 6.803225 2.463116 1.932816 5.282095 3.495813 8.359245 4.521529 4.933209 1.611841 9.782688 1.611841 13.794847 1.004784 2.128188-.320972 4.081934-.816387 5.805418-1.367623 2.128189-.676833 4.081935-1.458332 5.624-2.121211 3.363235-1.472287 6.51714-3.237637 9.0291-4.661081s4.975076-2.853866 7.340506-4.012158c1.409487-.669857 3.084127-1.416465 4.737835-1.981657.439594-.146531.879185-.286084 1.318779-.404704 1.64673-.453549 3.272525-.655901 4.716902-.50937 1.235047.11862 2.281697.523326 2.986442 1.018738.30004.188398.558213.453551.774521.732657.188398.258172.313995.502392.383767.634966.07673.167465.118623.50937-.01396 1.004784-.125597.502392-.397726 1.081538-.816387 1.660686-.432616.5931-1.032694 1.207135-1.842103 1.842104-.795455.614035-1.744418 1.214112-2.846888 1.79326-2.421251 1.165271-4.828545 1.946769-8.212715 3.209725-3.070174 1.144338-6.733448 2.623604-10.16646 4.9681-1.800236 1.269933-3.600475 2.853864-5.149516 4.772723-1.542066 1.918859-2.881778 4.235445-3.628387 6.949756-.669856 2.714317-.704746 5.728667.195375 8.624397.453548 1.47229 1.151314 2.86782 2.044456 4.10985.907095 1.25598 2.044456 2.39334 3.391146 3.30044 2.393338 1.59089 5.030897 2.17702 7.312594 2.23982h.774521c1.932812-.0488 3.774917-.44657 5.456535-1.01176 1.758373-.53728 3.349281-1.26296 4.716903-1.9049 1.395533-.66288 2.470093-1.20016 3.593497-1.64673 1.025717-.45355 1.918859-.74661 2.728268-.87221.767544-.11862 1.395533-.0628 1.849081.0628.202354.0558.383772.14652.530304.23723.139557.0907.237239.17445.286092.21631.07673.0349.146523.0907.195376.10465.05582 0 .104643.0279.174436.014.06283-.014 0 .20933-.25119.50239-.293069.3419-.71871.68381-1.37461 1.19317-.634968.48147-1.500199 1.11644-2.288674 1.89794-.872208.85825-1.723484 1.94676-2.24681 3.29346-.523324 1.36064-.607057 2.75618-.390749 3.98425.251196 1.43041.914075 2.60266 1.681617 3.433 1.032697 1.13039 2.232854 1.61184 3.119018 1.74442.216308.0279.41866.0419.607057.0349 1.576962-.0558 2.211919-1.26295 2.491033-1.61881-.390752-.36982-.788477-1.31878-1.102475-2.1282-.03492-.0907-.06972-.17443-.09764-.26514-.125595-.35587-.237245-.74661-.209332-1.09549.01401-.2512.07673-.51636.195376-.68382.09764-.14653.237233-.27911.362839-.32795.125595-.0558.334927-.22329.711723-.45355.467505-.27911.795448-.43959 1.625794-.88617.648925-.3419 1.611837-.8722 2.532892-1.59089.921056-.71871 1.981666-1.76536 2.735246-3.22369.66985-1.30482.99781-2.7492.99781-4.17264.007-1.42345-.314-2.80503-.87221-4.04008-.58612-1.24202-1.39553-2.30262-2.316585-3.17483-.928029-.87919-1.981663-1.57696-3.084137-2.10028-2.211911-1.03967-4.542459-1.332735-6.586918-1.25598-2.114232.0768-4.054023.55124-5.651908 1.05363-1.576954.5303-3.209727 1.22807-4.36802 1.69557-1.332733.53728-2.358451.9071-3.328347 1.13038-.914074.16049-1.604864.14653-2.107256.0349-.0628-.014-.125598-.0279-.188396-.0488-.509369-.16049-.788476-.4396-.711723-.57915.04187-.0558.04884-.1256.0628-.24422.01396-.11164.02791-.23724.08374-.34888.08373-.23724.223285-.64893.50937-1.0327.209328-.42564.558213-.90709 1.13038-1.45135.586124-.558213 1.353669-1.123405 2.27472-1.625797 1.856058-1.116426 4.06798-1.946768 6.9358-2.846888 2.651513-.83732 6.28688-1.863038 9.629186-3.251592 1.80023-.711722 3.670252-1.58393 5.484444-2.686403 1.85607-1.123403 3.69119-2.504981 5.36583-4.214509 1.73745-1.786282 3.24462-3.893538 4.35406-6.251989 1.13736-2.42823 1.877-5.184406 1.94678-8.13596.0697-2.909686-.52333-5.658888-1.51416-8.087115-1.01873-2.518938-2.50498-4.779702-4.2773-6.670651-3.754-4.005179-8.50579-6.182211-12.776127-7.124196-4.947165-1.095493-9.587313-.690789-13.152901.0628-.990827.216308-1.925836.453547-2.798043.711722-3.293459.969894-6.028704 2.274718-7.947563 3.286482-3.119017 1.611839-6.224079 3.572565-8.338311 4.863432-2.456138 1.500199-4.654103 2.798044-6.859046 3.795852-.983852.453547-2.058412.858252-3.174838 1.137358-.893142.216308-1.76535.36284-2.623604.404705-1.639751.08374-3.021329-.209329-3.956337-.74661-.544257-.293062-1.10247-.718701-1.611841-1.276914-.50937-.56519-.941983-1.22109-1.235047-1.918857-.669856-1.549043-.879185-3.426035-.586124-5.20534.07675-1.109447.320973-2.225874.704744-3.335324.300041-.858253.711722-1.730461 1.235048-2.609648 1.22807-2.065389 3.007373-4.019136 5.093696-5.700753 3.244616-2.993419 7.040466-5.156496 10.892138-6.559007 4.284287-1.562997 8.387155-2.100276 11.987631-2.128188 4.60526-.02791 8.729061.760565 11.959721 1.137361.09071.007.181419.02093.272128.02791 11.442394.412391 22.164886-4.937491 21.902856-15.497485z" fill="url(#a)"/></g></svg>
