<?xml version="1.0" encoding="UTF-8"?>
<!-- Created with Inkscape (http://www.inkscape.org/) -->
<svg width="179mm" height="179mm" version="1.1" viewBox="0 0 179 179" xml:space="preserve" xmlns="http://www.w3.org/2000/svg" xmlns:xlink="http://www.w3.org/1999/xlink"><defs><linearGradient id="linearGradient30051" x1="68.399" x2="73.752" y1="73.528" y2="68.801" gradientTransform="matrix(1.4067,0,0,1.4067,-28.351,-29.097)" gradientUnits="userSpaceOnUse" xlink:href="#linearGradient32895"/><linearGradient id="linearGradient32830" x1="68.252" x2="74.382" y1="73.827" y2="70.238" gradientTransform="matrix(1.4067,0,0,1.4067,12.153,-5.4535)" gradientUnits="userSpaceOnUse" xlink:href="#linearGradient32895"/><linearGradient id="linearGradient42218" x1="60.606" x2="146.29" y1="88.654" y2="88.654" gradientUnits="userSpaceOnUse"><stop stop-color="#5570ff" offset="0"/><stop stop-color="#4dd3ff" offset="1"/></linearGradient><linearGradient id="linearGradient42220" x1="68.582" x2="138.68" y1="88.348" y2="88.348" gradientTransform="matrix(1.3586,0,0,1.3586,-36.476,-31.653)" gradientUnits="userSpaceOnUse"><stop stop-color="#d10ee9" offset="0"/><stop stop-color="#ffce00" offset="1"/></linearGradient><linearGradient id="linearGradient32897" x1="62.196" x2="143.91" y1="132.74" y2="42.985" gradientTransform="matrix(1.5044,0,0,1.5044,-51.948,-44.435)" gradientUnits="userSpaceOnUse" xlink:href="#linearGradient32895"/><linearGradient id="linearGradient32895"><stop stop-color="#5574ff" offset="0"/><stop stop-color="#4eccff" offset="1"/></linearGradient></defs><g transform="translate(-14.779,1.126)"><g transform="matrix(2.3938,0,0,2.3938,-117.66,-108.29)"><path transform="matrix(.65167 0 0 .65167 25.303 24.314)" d="m71.451 70.608s-8.6667 1.6176-9.3043 4.1853c-0.63762 2.5676 5.878 5.1508 8.5946 5.9437 5.1035 1.4896 28.166 7.0824 34.493 8.0764 4.3384 0.68165 21.28 4.4347 31.482 7.8319 5.2062 1.7336 8.6474 4.4659 8.001 6.0388-1.3264 3.2277-8.1986 4.0174-8.1986 4.0174" fill="none" stroke="url(#linearGradient42218)" stroke-linecap="round" stroke-miterlimit="2" stroke-width="3" style="paint-order:stroke fill markers"/><path d="m76.401 69.839a4.347 4.347 0 0 1-3.8233 4.814 4.347 4.347 0 0 1-4.814-3.8233 4.347 4.347 0 0 1 3.8233-4.814 4.347 4.347 0 0 1 4.814 3.8233z" fill="url(#linearGradient30051)" fill-rule="evenodd"/><path d="m116.9 93.482a4.347 4.347 0 0 1-3.8234 4.814 4.347 4.347 0 0 1-4.814-3.8233 4.347 4.347 0 0 1 3.8233-4.814 4.347 4.347 0 0 1 4.814 3.8233z" fill="url(#linearGradient32830)" fill-rule="evenodd"/></g><path d="m78.378 142.95c6.173-6.1637 23.895-23.9 30.068-30.064m2.4441-31.464c6.9533 6.0019 9.1872 16.407 3.3717 24.717-4.5476 5.8544-15.338 17.157-24.802 23.481-6.0094 2.0776-13.086 1.8724-18.773-1.7749-6.822-4.3758-10.996-13.151-8.6362-21.257 1.9132-7.4344 8.1666-12.869 13.48-17.911m54.597-54.873c-5.5001 5.5281-17.471 17.071-22.971 22.599m26.071 31.694c6.3022-5.3889 13.309-11.939 13.942-20.713 0.50332-9.0473-4.9629-18.441-14.122-21.063-6.997-2.0033-14.844-0.8253-19.899 4.4902-7.31 6.602-14.314 13.689-19.995 21.76-3.627 7.2725-1.7132 16.952 4.3783 22.339" fill="none" stroke="url(#linearGradient42220)" stroke-linecap="round" stroke-miterlimit="2" stroke-width="9.51" style="paint-order:stroke fill markers"/><path d="m188.75 88.374a84.471 84.471 0 0 1-84.471 84.471 84.471 84.471 0 0 1-84.471-84.471 84.471 84.471 0 0 1 84.471-84.471 84.471 84.471 0 0 1 84.471 84.471z" fill="none" stroke="url(#linearGradient32897)" stroke-linecap="round" stroke-miterlimit="2" stroke-width="10.035" style="paint-order:stroke fill markers"/></g></svg>
