<?xml version="1.0" encoding="UTF-8"?>
<!-- Created with Inkscape (http://www.inkscape.org/) -->
<svg width="413.3" height="387.52" version="1.1" viewBox="0 0 109.35 102.53" xml:space="preserve" xmlns="http://www.w3.org/2000/svg" xmlns:xlink="http://www.w3.org/1999/xlink"><defs><linearGradient id="linearGradient6549"><stop stop-color="#37ce90" offset="0"/><stop stop-color="#9ff66a" offset="1"/></linearGradient><linearGradient id="linearGradient6551" x1="13.057" x2="122.41" y1="69.227" y2="69.227" gradientUnits="userSpaceOnUse" xlink:href="#linearGradient6549"/><linearGradient id="linearGradient8007" x1="67.696" x2="68.228" y1="120.49" y2="17.961" gradientUnits="userSpaceOnUse" xlink:href="#linearGradient6549"/><linearGradient id="linearGradient12984" x1="67.486" x2="67.486" y1="106.44" y2="64.895" gradientUnits="userSpaceOnUse" xlink:href="#linearGradient6549"/><linearGradient id="linearGradient12986" x1="67.733" x2="67.733" y1="107.19" y2="70.794" gradientUnits="userSpaceOnUse" xlink:href="#linearGradient6549"/><linearGradient id="linearGradient12916" x1="69.368" x2="69.368" y1="44.988" y2="36.682" gradientTransform="translate(-29.287 .1611)" gradientUnits="userSpaceOnUse" xlink:href="#linearGradient6549"/></defs><g transform="translate(-13.057 -17.961)" stroke="url(#linearGradient6551)"><g fill="none" stroke-linecap="round" stroke-miterlimit="2"><g class="UnoptimicedTransforms" stroke="url(#linearGradient8007)" stroke-width="4"><path d="m67.733 26.77s15.283-0.56229 25.651 7.4879c10.336 8.0256 9.7781 18.996 9.7781 18.996h-36.723m1.2936-26.484s-15.283-0.56229-25.651 7.4879c-10.336 8.0256-9.7781 18.996-9.7781 18.996h36.723" stroke="url(#linearGradient8007)" style="paint-order:stroke fill markers"/><path d="m66.427 57.843h34.814v52.808s1.2569 2.5517-4.0298 6.076c-5.2866 3.5243-10.613 0.78158-10.613 0.78158l-2.0515-2.998-11.586 0.0801m-3.9202-56.747h-34.814v52.808s-1.2569 2.5517 4.0298 6.076c5.2866 3.5243 10.613 0.78158 10.613 0.78158l2.0515-2.998 11.586 0.0801" stroke="url(#linearGradient8007)" style="paint-order:stroke fill markers"/><path d="m67.486 64.895s22.096-0.77872 22.096 21.6c0 20.708-22.096 20.703-22.096 20.703m0.49398-42.303s-22.096-0.77872-22.096 21.6c0 20.708 22.096 20.703 22.096 20.703" stroke="url(#linearGradient12984)" style="paint-order:stroke fill markers"/><path d="m105.85 66.374c0-2.663 2.4324-7.0298 7.2509-7.0298s7.3096 4.3489 7.3096 7.0298v29.04c0 2.7855-2.2566 7.179-7.3096 7.1601s-7.2509-4.3917-7.2509-7.1601zm-76.233 0c0-2.663-2.4324-7.0298-7.2509-7.0298s-7.3096 4.3489-7.3096 7.0298v29.04c0 2.7855 2.2566 7.179 7.3096 7.1601s7.2509-4.3917 7.2509-7.1601z" stroke="url(#linearGradient8007)" style="paint-order:stroke fill markers"/><path d="m83.505 29.166 6.4536-9.2055m-37.997 9.2055-6.4536-9.2055" stroke="url(#linearGradient8007)" style="paint-order:stroke fill markers"/></g><path d="m58.08 90.194c-0.78742-1.5061-1.2327-3.2194-1.2327-5.0367 0-6.0123 4.8739-10.886 10.886-10.886s10.886 4.8739 10.886 10.886c0 1.7919-0.43294 3.4827-1.1999 4.9734-1.8064 3.5112-5.4659 5.9128-9.6863 5.9128-0.87819 0-1.7321-0.10399-2.5501-0.30032" stroke="url(#linearGradient12986)" stroke-width="3" style="paint-order:stroke fill markers"/></g><path class="UnoptimicedTransforms" d="m57.186 40.997c0 2.2937-1.8594 4.1531-4.1531 4.1531s-4.1531-1.8594-4.1531-4.1531 1.8594-4.1531 4.1531-4.1531 4.1531 1.8594 4.1531 4.1531zm21.094 0c0 2.2937 1.8594 4.1531 4.1531 4.1531s4.1531-1.8594 4.1531-4.1531-1.8594-4.1531-4.1531-4.1531-4.1531 1.8594-4.1531 4.1531z" fill="url(#linearGradient12916)" stroke="none" style="paint-order:stroke fill markers"/></g></svg>
