<svg height="250" viewBox="0 0 250 250" width="250" xmlns="http://www.w3.org/2000/svg" xmlns:xlink="http://www.w3.org/1999/xlink"><linearGradient id="a" gradientUnits="userSpaceOnUse" x1="76.98607946879" x2="114.46838300895" y1="46.6098057364" y2="123.3940425705"><stop offset="0" stop-color="#42133c"/><stop offset="1" stop-color="#862e5f"/></linearGradient><linearGradient id="b" gradientUnits="userSpaceOnUse" x1="198.8646673821" x2="248.51982802854" xlink:href="#c" y1="102.3135800399" y2="102.3135800399"/><linearGradient id="c"><stop offset="0" stop-color="#731f4b"/><stop offset="1" stop-color="#3d1139"/></linearGradient><linearGradient id="d" gradientUnits="userSpaceOnUse" x1="192.9284503482" x2="162.38126621724" y1="165.82309925406" y2="127.33331218284"><stop offset="0" stop-color="#792958"/><stop offset="1" stop-color="#681e49"/></linearGradient><linearGradient id="e" gradientUnits="userSpaceOnUse" x1="144.4419746878" x2="173.31893634666" xlink:href="#f" y1="134.43703045948" y2="134.43703045948"/><linearGradient id="f"><stop offset="0" stop-color="#862e5f"/><stop offset="1" stop-color="#55143b"/></linearGradient><linearGradient id="g" gradientUnits="userSpaceOnUse" x1="153.97192545684" x2="203.09935130977" xlink:href="#h" y1="82.50138742841" y2="82.50138742841"/><linearGradient id="h"><stop offset="0" stop-color="#3d1139"/><stop offset="1" stop-color="#862e5f"/></linearGradient><linearGradient id="i" gradientUnits="userSpaceOnUse" x1="203.09935130977" x2="226.94014248956" xlink:href="#j" y1="78.4256764794" y2="78.4256764794"/><linearGradient id="j"><stop offset="0" stop-color="#55143b"/><stop offset="1" stop-color="#862e5f"/></linearGradient><linearGradient id="k" gradientUnits="userSpaceOnUse" x1="145.68684151382" x2="207.97899976133" xlink:href="#f" y1="110.68196290463" y2="110.89401244555"/><linearGradient id="l" gradientUnits="userSpaceOnUse" x1="22.79455886345" x2="199.79899872326" xlink:href="#m" y1="84.49938382838" y2="84.49938382838"/><linearGradient id="m"><stop offset="0" stop-color="#731f4b"/><stop offset="1" stop-color="#55143b"/></linearGradient><linearGradient id="n" gradientUnits="userSpaceOnUse" x1="203.09935130977" x2="248.51979773177" xlink:href="#j" y1="83.6928096325" y2="83.6928096325"/><linearGradient id="o" gradientUnits="userSpaceOnUse" x1="230.7625125502" x2="248.51979773177" xlink:href="#m" y1="117.44343595604" y2="117.44343595604"/><linearGradient id="p" gradientUnits="userSpaceOnUse" x1="163.57157345412" x2="208.22480884844" xlink:href="#j" y1="48.06932150492" y2="48.06932150492"/><linearGradient id="q" gradientUnits="userSpaceOnUse" x1="118.01037917914" x2="188.12679581297" xlink:href="#r" y1="40.11015372335" y2="40.11015372335"/><linearGradient id="r"><stop offset="0" stop-color="#862e5f"/><stop offset="1" stop-color="#731f4b"/></linearGradient><linearGradient id="s" gradientUnits="userSpaceOnUse" x1="172.02440882932" x2="74.62448405238" xlink:href="#h" y1="13.13535419876" y2="68.93036718866"/><linearGradient id="t" gradientUnits="userSpaceOnUse" x1="199.76022228154" x2="158.59228481183" xlink:href="#c" y1="69.0708433041" y2="39.50844708096"/><linearGradient id="u" gradientUnits="userSpaceOnUse" x1="174.67814217669" x2="208.22480884844" xlink:href="#h" y1="78.4256764794" y2="78.4256764794"/><linearGradient id="v" gradientUnits="userSpaceOnUse" x1="138.36835145272" x2="203.09935130977" xlink:href="#h" y1="112.74338208922" y2="85.60872052229"/><linearGradient id="w" gradientUnits="userSpaceOnUse" x1="164.39878167026" x2="67.25720788581" xlink:href="#j" y1="53.5193665153" y2="83.4320878326"/><linearGradient id="x" gradientUnits="userSpaceOnUse" x1="145.25889067167" x2="34.73252143815" xlink:href="#j" y1="86.42584225454" y2="118.24667704125"/><linearGradient id="y" gradientUnits="userSpaceOnUse" x1="114.61756612661" x2="202.9987237245" xlink:href="#f" y1="97.90211089842" y2="97.90211089842"/><linearGradient id="z" gradientUnits="userSpaceOnUse" x1="114.46837672375" x2="173.22786260027" y1="134.47532377039" y2="134.47532377039"><stop offset="0" stop-color="#fca326"/><stop offset="1" stop-color="#e24329"/></linearGradient><linearGradient id="A" gradientUnits="userSpaceOnUse" x1="38.52006824666" x2="145.95161366357" xlink:href="#c" y1="109.67459044828" y2="81.51986827342"/><linearGradient id="B" gradientUnits="userSpaceOnUse" x1="7.71698446376" x2="114.46838300895" xlink:href="#f" y1="130.34344162066" y2="130.34344162066"/><linearGradient id="C" gradientUnits="userSpaceOnUse" x1="58.32458654407" x2="64.53349320195" xlink:href="#h" y1="183.33833145954" y2="121.8412151858"/><linearGradient id="D" gradientUnits="userSpaceOnUse" x1="28.59708762557" x2="114.46838300895" xlink:href="#j" y1="153.5531476681" y2="153.5531476681"/><linearGradient id="E" gradientUnits="userSpaceOnUse" x1="114.46838300895" x2="173.22785496834" xlink:href="#j" y1="140.87159949082" y2="140.87159949082"/><linearGradient id="F" gradientUnits="userSpaceOnUse" x1="114.46838300895" x2="165.2263008251" xlink:href="#f" y1="148.13592931714" y2="148.13592931714"/><linearGradient id="G" gradientUnits="userSpaceOnUse" x1="49.17410530964" x2="114.46838300895" xlink:href="#j" y1="156.66710043872" y2="156.66710043872"/><linearGradient id="H" gradientUnits="userSpaceOnUse" x1="114.46838300895" x2="157.48729386738" xlink:href="#j" y1="155.85743575096" y2="155.85743575096"/><linearGradient id="I" gradientUnits="userSpaceOnUse" x1="79.79152356561" x2="121.63886283474" xlink:href="#h" y1="160.80674121796" y2="160.80674121796"/><linearGradient id="J" gradientUnits="userSpaceOnUse" x1="114.46838300895" x2="144.48046797498" xlink:href="#f" y1="159.48020150634" y2="159.48020150634"/><linearGradient id="K" gradientTransform="matrix(2.3849909 0 0 2.6119213 .397341 -512.56611)" gradientUnits="userSpaceOnUse" x1="26.040033" x2="64.62645" xlink:href="#m" y1="222.32001" y2="222.32001"/><linearGradient id="L" gradientUnits="userSpaceOnUse" x1="174.77151915738" x2="173.28350270164" xlink:href="#r" y1="170.60837172064" y2="134.5507248743"/><g fill="#752553"><path d="m134.23994 60.686716c23.24473-10.666038 43.91083 22.030249 56.21582 8.746447-5.36397 8.573251-17.85163 9.353027-26.55741 9.382601 0 0-13.35821-.318155-11.60892-11.529384-2.88642-4.768087-12.02849-4.673112-18.04949-6.599664z"/><path d="m156.02586 64.019799a7.0766692 7.0766692 0 0 0 -2.94123 5.731362 7.0766692 7.0766692 0 0 0 7.07722 7.077252 7.0766692 7.0766692 0 0 0 7.07548-7.077252 7.0766692 7.0766692 0 0 0 -.2108-1.690236 5.7647021 6.9971558 0 0 1 -5.39401 4.552457 5.7647021 6.9971558 0 0 1 -5.76475-6.996474 5.7647021 6.9971558 0 0 1 .15813-1.597109z"/><path d="m218.46372 76.236777s-8.04529 2.011262-7.03961 6.536741c0 0 3.26839-.2513 7.03961-6.536741z"/><path d="m114.46838 102.41213-92.230302 19.59088-20.7579184 22.37298z"/><path d="m198.86467 94.703841 49.65516 3.486616-15.85017 11.732823z"/><path d="m146.05957 104.15393 27.1942 62.48981-45.16489-63.65173z"/><path d="m165.91559 103.82307 7.40335 63.01073-28.87697-64.79354z"/><path d="m153.97193 75.106361 49.38538 21.437316-28.67915-27.827996z"/><path d="m226.92182 69.345149-24.12921 27.430557 5.4322-36.211454z"/><path d="m232.67533 109.88218-29.73788-13.96223-89.39509 6.47063z"/><path d="m22.794571 103.91926 49.472364-30.695719 127.532065-8.143918z"/><path d="m248.51983 98.190457-21.67721-28.859229-23.7433 26.95584z"/><path d="m230.7625 136.69633 1.90716-26.77305 15.85017-11.732823-2.94001 24.091613z"/><path d="m208.22481 60.564252-20.22148-24.989962-25.14872 14.078011z"/><path d="m117.95816 30.798653 45.77505 18.965927 24.39361-14.169053z"/><path d="m62.502583 73.782614 55.507797-42.976804 46.19959 18.729651z"/><path d="m208.22481 60.564252-33.72359 8.513631-10.63497-19.61034z"/><path d="m208.42892 60.507739-35.62332 8.623825 30.29203 27.120189z"/><path d="m156.64122 93.467714 47.44128 2.845664-50.17688-21.471727z"/><path d="m168.83208 58.341882-106.329497 15.440732c6.352014-2.175846 101.482837-24.344684 101.482837-24.344684z"/><path d="m156.91256 93.448169-134.674482 28.554841 131.840222-47.235687z"/><path d="m114.61757 102.40195 42.50858-8.999558 45.87257 2.728823z"/><path d="m114.46838 102.41213 58.75947 64.12629c-19.88284-20.69762-34.38726-35.56512-58.75947-64.12629z"/><path d="m154.04969 74.85573-118.022596 26.11743-13.789016 21.02985z"/><path d="m7.7169845 158.27479 106.7513955-55.86266-100.498439 37.32512z"/><path d="m11.737928 177.28362 12.394804-27.59911 90.335648-47.27238z"/><path d="m42.67655 204.69412-14.079462-40.45389 85.871292-61.8281z"/><path d="m173.22785 166.53842-9.2551 12.79265-49.50437-76.91894z"/><path d="m154.9663 193.85976-40.49792-91.44763 50.75792 78.86602z"/><path d="m77.981521 210.92199-28.807412-15.48521 65.294271-93.02465z"/><path d="m157.48729 199.5518-43.01891-97.13967 27.99694 106.89073z"/><path d="m114.46838 102.41213 7.17048 116.78922-41.847348-13.66315z"/><path d="m114.46838 102.41213 6.78274 110.83645 23.22935 3.29977z"/><path d="m168.78001 56.776312 6.04397 11.621803-112.264857 5.381234z"/><path d="m129.10417 103.36743 44.17933 63.30541-58.87729-64.24427z"/></g><path d="m134.23994 60.686716c23.24473-10.666038 43.91083 22.030249 56.21582 8.746447-5.36397 8.573251-17.85163 9.353027-26.55741 9.382601 0 0-13.35821-.318155-11.60892-11.529384-2.88642-4.768087-12.02849-4.673112-18.04949-6.599664z"/><path d="m156.02586 64.019799a7.0766692 7.0766692 0 0 0 -2.94123 5.731362 7.0766692 7.0766692 0 0 0 7.07722 7.077252 7.0766692 7.0766692 0 0 0 7.07548-7.077252 7.0766692 7.0766692 0 0 0 -.2108-1.690236 5.7647021 6.9971558 0 0 1 -5.39401 4.552457 5.7647021 6.9971558 0 0 1 -5.76475-6.996474 5.7647021 6.9971558 0 0 1 .15813-1.597109z" fill="#fff"/><path d="m218.46372 76.236777s-8.04529 2.011262-7.03961 6.536741c0 0 3.26839-.2513 7.03961-6.536741z"/><path d="m114.46838 102.41213-92.230302 19.59088-20.7579184 22.37298z" fill="url(#a)"/><path d="m198.86467 94.703841 49.65516 3.486616-15.85017 11.732823z" fill="url(#b)"/><path d="m146.05957 104.15393 27.1942 62.48981-45.16489-63.65173z" fill="url(#d)"/><path d="m165.91559 103.82307 7.40335 63.01073-28.87697-64.79354z" fill="url(#e)"/><path d="m153.97193 75.106361 49.38538 21.437316-28.67915-27.827996z" fill="url(#g)"/><path d="m226.92182 69.345149-24.12921 27.430557 5.4322-36.211454z" fill="url(#i)"/><path d="m232.67533 109.88218-29.73788-13.96223-89.39509 6.47063z" fill="url(#k)"/><path d="m22.794571 103.91926 49.472364-30.695719 127.532065-8.143918z" fill="url(#l)"/><path d="m248.51983 98.190457-21.67721-28.859229-23.7433 26.95584z" fill="url(#n)"/><path d="m230.7625 136.69633 1.90716-26.77305 15.85017-11.732823-2.94001 24.091613z" fill="url(#o)"/><path d="m208.22481 60.564252-20.22148-24.989962-25.14872 14.078011z" fill="url(#p)"/><path d="m117.95816 30.798653 45.77505 18.965927 24.39361-14.169053z" fill="url(#q)"/><path d="m62.502583 73.782614 55.507797-42.976804 46.19959 18.729651z" fill="url(#s)"/><path d="m208.22481 60.564252-33.72359 8.513631-10.63497-19.61034z" fill="url(#t)"/><path d="m208.42892 60.507739-35.62332 8.623825 30.29203 27.120189z" fill="url(#u)"/><path d="m156.64122 93.467714 47.44128 2.845664-50.17688-21.471727z" fill="url(#v)"/><path d="m168.83208 58.341882-106.329497 15.440732c6.352014-2.175846 101.482837-24.344684 101.482837-24.344684z" fill="url(#w)"/><path d="m156.91256 93.448169-134.674482 28.554841 131.840222-47.235687z" fill="url(#x)"/><path d="m114.61757 102.40195 42.50858-8.999558 45.87257 2.728823z" fill="url(#y)"/><path d="m114.46838 102.41213 58.75947 64.12629c-19.88284-20.69762-34.38726-35.56512-58.75947-64.12629z" fill="url(#z)"/><path d="m154.04969 74.85573-118.022596 26.11743-13.789016 21.02985z" fill="url(#A)"/><path d="m7.7169845 158.27479 106.7513955-55.86266-100.498439 37.32512z" fill="url(#B)"/><path d="m11.737928 177.28362 12.394804-27.59911 90.335648-47.27238z" fill="url(#C)"/><path d="m42.67655 204.69412-14.079462-40.45389 85.871292-61.8281z" fill="url(#D)"/><path d="m173.22785 166.53842-9.2551 12.79265-49.50437-76.91894z" fill="url(#E)"/><path d="m154.9663 193.85976-40.49792-91.44763 50.75792 78.86602z" fill="url(#F)"/><path d="m77.981521 210.92199-28.807412-15.48521 65.294271-93.02465z" fill="url(#G)"/><path d="m157.48729 199.5518-43.01891-97.13967 27.99694 106.89073z" fill="url(#H)"/><path d="m114.46838 102.41213 7.17048 116.78922-41.847348-13.66315z" fill="url(#I)"/><path d="m114.46838 102.41213 6.78274 110.83645 23.22935 3.29977z" fill="url(#J)"/><path d="m168.78001 56.776312 6.04397 11.621803-112.264857 5.381234z" fill="url(#K)"/><path d="m129.10417 103.36743 44.17933 63.30541-58.87729-64.24427z" fill="url(#L)"/><path d="m134.23994 60.686716c23.24473-10.666038 43.91083 22.030249 56.21582 8.746447-5.36397 8.573251-17.85163 9.353027-26.55741 9.382601 0 0-13.35821-.318155-11.60892-11.529384-2.88642-4.768087-12.02849-4.673112-18.04949-6.599664z"/><path d="m156.02586 64.019799a7.0766692 7.0766692 0 0 0 -2.94123 5.731362 7.0766692 7.0766692 0 0 0 7.07722 7.077252 7.0766692 7.0766692 0 0 0 7.07548-7.077252 7.0766692 7.0766692 0 0 0 -.2108-1.690236 5.7647021 6.9971558 0 0 1 -5.39401 4.552457 5.7647021 6.9971558 0 0 1 -5.76475-6.996474 5.7647021 6.9971558 0 0 1 .15813-1.597109z" fill="#fff"/><path d="m218.46372 76.236777s-8.04529 2.011262-7.03961 6.536741c0 0 3.26839-.2513 7.03961-6.536741z"/></svg>