<?xml version="1.0" encoding="UTF-8"?>
<!-- Created with Inkscape (http://www.inkscape.org/) -->
<svg width="128mm" height="128mm" version="1.1" viewBox="0 0 128 128" xml:space="preserve" xmlns="http://www.w3.org/2000/svg" xmlns:xlink="http://www.w3.org/1999/xlink"><defs><linearGradient id="linearGradient13649"><stop stop-color="#ff8045" offset="0"/><stop stop-color="#db0050" offset="1"/></linearGradient><linearGradient id="linearGradient11976"><stop stop-color="#ff9945" offset="0"/><stop stop-color="#ff5050" offset="1"/></linearGradient><linearGradient id="linearGradient8133" x1="81.816" x2="32.332" y2="128" gradientTransform="matrix(1.0112 0 0 1.0112 -.7147 -.71469)" gradientUnits="userSpaceOnUse" xlink:href="#linearGradient13649"/><linearGradient id="linearGradient8915" x1="108.75" x2="110.2" y1="71.04" y2="71.04" gradientUnits="userSpaceOnUse" xlink:href="#linearGradient11976"/><linearGradient id="linearGradient8925" x1="58.868" x2="13.128" y1="56.337" y2="128" gradientTransform="rotate(56.005 57.453 63.589)" gradientUnits="userSpaceOnUse" xlink:href="#linearGradient13649"/><linearGradient id="linearGradient8956" x1="52.87" x2="64.32" y1="69.411" y2="55.509" gradientTransform="matrix(3.1686 0 0 3.1686 -124.55 -134.85)" gradientUnits="userSpaceOnUse"><stop stop-color="#ff45a9" offset="0"/><stop stop-color="#ff5050" offset="1"/></linearGradient><linearGradient id="linearGradient8958" x1="105.4" x2="115.01" y1="35.861" y2="35.861" gradientUnits="userSpaceOnUse" xlink:href="#linearGradient11976"/><linearGradient id="linearGradient8960" x1="136.73" x2="144.37" y1="36.039" y2="36.039" gradientUnits="userSpaceOnUse" xlink:href="#linearGradient11976"/></defs><path d="m98.409 72.886c-2.281 10.058-8.249 19.302-17.474 25.523-19.23 12.968-45.333 7.8921-58.301-11.338-12.968-19.23-7.8921-45.333 11.338-58.301 19.23-12.968 45.333-7.8921 58.301 11.338 3.3384 4.9505 5.4811 10.356 6.4942 15.876" fill="none" stroke="url(#linearGradient8925)" stroke-linecap="round" stroke-miterlimit="6.6" stroke-width="7"/><path d="m42.973 41.036 36.282 20.456-36.282 23.592z" fill="url(#linearGradient8956)"/><path d="m110.2 47.956v40.322l-1.4514 5.8464" fill="none" stroke="url(#linearGradient8915)" stroke-linecap="round" stroke-miterlimit="6.6" stroke-width="4"/><rect x="105.4" y="20.405" width="9.6015" height="30.911" rx="1" ry="1" fill="url(#linearGradient8958)"/><rect transform="rotate(29.175)" x="136.73" y="27.682" width="7.6456" height="16.713" rx="1" ry="1" fill="url(#linearGradient8960)"/><path d="m19.673 124.91h-7.0645c-5.2723 0-9.5169-4.2445-9.5169-9.5169v-102.78c0-5.2723 4.2445-9.5169 9.5169-9.5169h102.78c5.2724 0 9.5169 4.2445 9.5169 9.5169v102.78c0 5.2724-4.2445 9.5169-9.5169 9.5169h-67.644" fill="none" stroke="url(#linearGradient8133)" stroke-linecap="round" stroke-miterlimit="6.6" stroke-width="6.1841"/></svg>
