<?xml version="1.0" encoding="UTF-8"?>
<!-- Created with Inkscape (http://www.inkscape.org/) -->
<svg width="128mm" height="128mm" version="1.1" viewBox="0 0 128 128" xml:space="preserve" xmlns="http://www.w3.org/2000/svg"><defs><linearGradient id="linearGradient6124" x1="-190.46" x2="292.38" y1="236.96" y2="-7.835" gradientUnits="userSpaceOnUse"><stop stop-color="#fd0079" offset="0"/><stop stop-color="#fff733" offset="1"/></linearGradient><linearGradient id="linearGradient6192" x1="107.58" x2="127.3" y1="45.325" y2="22.344" gradientTransform="matrix(7.071 .49123 -.49123 7.071 -691.54 -134.91)" gradientUnits="userSpaceOnUse"><stop stop-color="#fff733" offset="0"/><stop stop-color="#fd0079" offset="1"/></linearGradient></defs><g transform="translate(.28839 .33578)"><g transform="translate(-20.099,-3.5025)"><g transform="matrix(.26458 0 0 .26458 67.894 7.3774)"><g fill="none" stroke-width="26.457"><path class="UnoptimicedTransforms" d="m257.81-1.2812c-19.06 0.15415-46.346 5.1856-74.785 14.373-16.887 5.4556-34.182 12.377-50.4 20.611-60.401 30.667-97.233 76.13-119.7 114.65-26.786 0.56827-37.536-8.9631-71.008 7.3144s-125.87 113.9-105.57 109.27c20.295-4.6344 115.32-3.8418 115.32-3.8418l37.201 36.879 37.039 37.041s1.2047 95.022-3.3418 115.34c-4.5465 20.314 92.678-72.503 108.81-106.04s6.5555-44.249 7.0078-71.037c38.419-22.629 83.722-59.658 114.13-120.19 8.1644-16.254 15.01-33.578 20.393-50.488 14.503-45.566 18.38-88.135 8.7988-98.721-3.9851-3.5757-12.458-5.239-23.895-5.1465z" stroke="url(#linearGradient6124)"/><path class="UnoptimicedTransforms" transform="rotate(180,134.51,149.37)" d="m195.67 134.74c4.4554 13.542-1.8081 35.047-8.515 44.718-6.7069 9.672-17.677 19.834-33.132 25.433-15.454 5.5988-42.327 1.1309-57.829-15.459m52.541-101.31c-13.572-4.3632-35.033 2.0465-44.66 8.819-9.6261 6.7725-19.714 17.812-25.207 33.304-5.4935 15.492-0.84293 42.333 15.852 57.722" stroke="url(#linearGradient6192)" stroke-linecap="round"/></g></g></g></g></svg>
