<svg height="128" viewBox="0 0 128 128" width="128" xmlns="http://www.w3.org/2000/svg" xmlns:xlink="http://www.w3.org/1999/xlink"><linearGradient id="a"><stop offset="0" stop-color="#4de3ff"/><stop offset="1" stop-color="#00b8e5"/></linearGradient><linearGradient id="b" gradientUnits="userSpaceOnUse" x1="65.278938" x2="65.278938" xlink:href="#a" y1=".819501" y2="127.122"/><linearGradient id="c" gradientUnits="userSpaceOnUse" x1="61.592426" x2="61.592426" xlink:href="#a" y1="20.428665" y2="68.078506"/><linearGradient id="d" gradientUnits="userSpaceOnUse" x1="95.339737" x2="95.339737" xlink:href="#a" y1=".637553" y2="127.52784"/><linearGradient id="e" gradientUnits="userSpaceOnUse" x1="86.124588" x2="86.124588" xlink:href="#a" y1="1.204709" y2="128.22459"/><path d="m53.753906 87.681641v9.917968h-4.785156c-.998354 0-1.800781.804381-1.800781 1.802735 0 .998356.802427 1.800776 1.800781 1.800776h30.222656c.998354 0 1.802735-.80242 1.802735-1.800776 0-.998354-.804381-1.802735-1.802735-1.802735h-4.896484v-9.917968z" fill="url(#e)"/><circle cx="64" cy="64" fill="none" r="59.36232" stroke="url(#b)" stroke-linecap="round" stroke-width="9.27536"/><path d="m34.228516 39.570312c-2.863105 0-5.167969 2.304865-5.167969 5.167969v34.628907c0 2.863104 2.304864 5.167968 5.167969 5.167968h59.542968c2.863105 0 5.167969-2.304864 5.167969-5.167968v-34.628907c0-2.863104-2.304864-5.167969-5.167969-5.167969h-11.814453a18.805653 18.805653 0 0 1 .847657 5.587891 18.805653 18.805653 0 0 1 -18.804688 18.806641 18.805653 18.805653 0 0 1 -18.804688-18.806641 18.805653 18.805653 0 0 1 .90625-5.587891z" fill="none" stroke="url(#d)" stroke-linecap="round" stroke-width="7.15"/><path d="m64 21.318359c-12.762272-.000192-23.108488 10.34515-23.109375 23.107422-.000192 12.763035 10.34634 23.109567 23.109375 23.109375 12.763035.000192 23.109567-10.34634 23.109375-23.109375-.000887-12.762272-10.347103-23.107614-23.109375-23.107422zm-4.363281 8.09375h8.726562v17.558594l7.429688.02344-11.896485 10.55664-11.576172-10.654297 7.316407.02148z" fill="url(#c)"/></svg>