<?xml version="1.0" encoding="UTF-8"?>
<!-- Created with Sodipodi ("http://www.sodipodi.com/") -->
<svg width="160pt" height="160pt" version="1.1" xmlns="http://www.w3.org/2000/svg" xmlns:xlink="http://www.w3.org/1999/xlink">
 <defs>
  <linearGradient id="linearGradient6041">
   <stop stop-color="#1a2789" offset="0"/>
   <stop stop-color="#82f8f4" offset="1"/>
  </linearGradient>
  <linearGradient id="linearGradient5146" x1="79.562" x2="167.73" y1="140.33" y2="11.347" gradientUnits="userSpaceOnUse">
   <stop stop-color="#481a89" offset="0"/>
   <stop stop-color="#f882df" offset="1"/>
  </linearGradient>
  <linearGradient id="linearGradient6035" x1="22.679" x2="62.157" y1="104.52" y2="18.449" gradientUnits="userSpaceOnUse" xlink:href="#linearGradient6041"/>
  <linearGradient id="linearGradient6049" x1="21.718" x2="75.798" y1="127.35" y2="127.35" gradientUnits="userSpaceOnUse" xlink:href="#linearGradient6041"/>
  <linearGradient id="linearGradient6057" x1="163.78" x2="211.83" y1="122.96" y2="122.96" gradientUnits="userSpaceOnUse" xlink:href="#linearGradient6041"/>
 </defs>
 <g transform="translate(-1.1843 -6.0861)">
  <g transform="translate(.63412 34.339)">
   <path d="m49.752 109.3s-21.664 0.92189-23.326 3.5126-0.34506 8.3784 1.832 9.4395c2.986 1.4553 26.826-2.9497 26.826-2.9497zm-19.193 13.29s-7.2066 2.0629-8.0664 3.6758-1.2298 7.9501 0.09766 11.746c1.3275 3.796 4.7228 6.7135 5.6426 7.2559 0.91978 0.54236 11.331-0.54073 17.725-2.0039 6.3935-1.4632 29.84-9.3072 29.84-9.3072s-13.779-0.5075-16.35-3.2475c-3.0862-3.2886-4.007-11.382-4.007-11.382z" fill="none" stroke="url(#linearGradient6049)" stroke-linecap="round" stroke-miterlimit="2" stroke-width="6.6667" style="paint-order:stroke fill markers"/>
   <path d="m175.49 104s14.698 1.2437 19.098 1.6004c4.4003 0.35669 9.0867 0.90369 10.917 2.979 1.8302 2.0753-1.3082 9.7112-1.3082 9.7112m-38.519 15.349s17.236 5.0634 21.396 6.0935c4.1607 1.0302 13.877 3.2972 16.47 1.5295 2.5932-1.7677 3.3595-2.4082 5.0756-8.1224 1.7161-5.7141 1.659-8.5775 0.57128-11.159-1.3275-3.15-27.592-6.5912-27.592-6.5912" fill="none" stroke="url(#linearGradient6057)" stroke-linecap="round" stroke-miterlimit="2" stroke-width="6.6667" style="paint-order:stroke fill markers"/>
   <path d="m45.301 106.06c0.96647 3.1474 3.5919 6.442 5.9995 11.941 1.9438 4.4395 2.96 11.058 6.4522 14.608 8.4657 8.6064 19.819 2.4422 19.819 2.4422 5.4644 12.356 17.518 17.512 27.794 15.129 9.7289-2.2558 9.3972-15.406 9.3972-15.406s16.049 11.779 24.388 9.2967c14.538-4.327 9.6944-14.221 9.6944-14.221-0.82475-1.7709 8.9166 11.952 24.279 4.1248 3.9368-2.0059 9.0238-10.656 8.1674-18.225-0.82837-7.321-7.5388-13.6-7.5388-13.6 7.0308-5.1714 10.532-11.936 10.532-11.936 5.8505-9.1783-10.232-21.355-10.232-21.355 2.6127-2.5471 6.9891-9.2913 1.1422-18.926-3.1785-5.2379-14.819-8.4137-14.819-8.4137 4.2965-4.8329 11.372-10.965 4.1337-18.832-3.0236-3.2864-17.429-7.8088-25.186-3.9427 0 0-7.3828-8.8369-10.46-10.106-12.626-5.2075-16.972-1.5993-19.363 3.55-1.855-2.4266-3.5804-5.7703-8.0984-6.0727-4.3502-0.29109-8.5664 2.1425-12.439 6.3323 0 0-3.8772-4.3698-8.9345-2.8972-5.3752 1.5651-6.0373 5.7048-9.0559 8.5572-5.1491-3.3621-9.6874 0.20907-14.929 4.5937-5.4776 4.5817-6.0302 11.077-6.2438 13.206 0 0 17.505-6.4044 21.379-7.2469 4.6434-1.0101 20.206 4.9134 19.461 8.2532-4.8544 21.759-28.069 14.909-28.069 14.909 3.0972 12.648 11.062 9.0038 8.7679 18.562-0.9019 3.7571-3.1805 12.748-8.278 20.75-1.9262 3.0238 0.77012 10.393-3.0572 12.348-3.8273 1.9554-14.701 2.5795-14.701 2.5795z" fill="url(#linearGradient5146)" style="paint-order:stroke fill markers"/>
   <path d="m50.018 36.354s7.7658 7.4322 9.9288 12.01c2.163 4.5782 4.1492 9.4682 5.512 11.453 1.3628 1.9846 6.2914 3.6662 5.9952 9.6728-0.29624 6.0066-5.358 15.698-7.5558 19.773-2.1978 4.0746-1.3393 8.6284-3.6978 12.727-2.3585 4.0985-28.353 5.0007-36.481 2.5033-8.1283-2.4974-18.605-13.953-19.176-23.329-0.57144-9.3768 8.9597-16.392 11.433-21.326 0 0 4.4708-11.553 9.1244-15.192 5.5345-4.3274 14.155-3.1171 20.152-6.1738 3.8684-1.8026 4.7656-2.1173 4.7656-2.1173zm-0.5824-0.37238s6.1447-0.54958 9.1219-2.0474c2.9772-1.4978 10.419-5.1954 14.729-5.0792s17.305 3.4746 17.257 8.7859c-0.04877 5.3113-5.4333 12.313-10.6 13.673s-14.779 1.5474-17.834-1.1498c-3.0551-2.6972-12.673-14.183-12.673-14.183zm0.02759 0.37797s-8.2639-11.555-12.981-14.093c-4.7172-2.5383-16.526-8.1449-22.757-5.0668-5.3936 2.6645-0.81878 15.163 5.7821 18.974 2.883 1.6645 5.8338 2.0229 8.5423 2.5934 4.152 0.8745 7.8407 1.4577 10.674 1.8339 4.6808 0.62157 10.74-4.2412 10.74-4.2412z" fill="none" stroke="url(#linearGradient6035)" stroke-linecap="round" stroke-miterlimit="2" stroke-width="6.6667" style="paint-order:stroke fill markers"/>
  </g>
 </g>
</svg>
